<svg width="26" height="25" viewBox="0 0 26 25" fill="none" xmlns="http://www.w3.org/2000/svg">
<path d="M13.2124 6.25C13.2124 9.70178 10.4142 12.5 6.9624 12.5C3.51062 12.5 0.712402 9.70178 0.712402 6.25C0.712402 2.79822 3.51062 0 6.9624 0C10.4142 0 13.2124 2.79822 13.2124 6.25Z" fill="#82B492"/>
<path d="M25.7124 6.25003C25.7124 9.70181 22.9142 12.5 19.4624 12.5C16.0107 12.5 13.2124 9.70181 13.2124 6.25003C13.2124 2.79825 16.0107 3.05176e-05 19.4624 3.05176e-05C22.9142 3.05176e-05 25.7124 2.79825 25.7124 6.25003Z" fill="#366A47"/>
<path d="M25.7124 18.75C25.7124 22.2018 22.9142 25 19.4624 25C16.0107 25 13.2124 22.2018 13.2124 18.75C13.2124 15.2982 16.0107 12.5 19.4624 12.5C22.9142 12.5 25.7124 15.2982 25.7124 18.75Z" fill="#82B492"/>
<path d="M13.2124 18.75C13.2124 22.2018 10.4142 25 6.9624 25C3.51062 25 0.712402 22.2018 0.712402 18.75C0.712402 15.2982 3.51062 12.5 6.9624 12.5C10.4142 12.5 13.2124 15.2982 13.2124 18.75Z" fill="#366A47"/>
</svg>
