<svg width="26" height="25" viewBox="0 0 26 25" fill="none" xmlns="http://www.w3.org/2000/svg">
<path d="M0.712341 25C0.712341 23.3783 1.03177 21.7724 1.65238 20.2741C2.273 18.7758 3.18265 17.4144 4.3294 16.2677C5.47614 15.1209 6.83753 14.2113 8.33583 13.5906C9.83413 12.97 11.44 12.6506 13.0617 12.6506V25L0.712341 25Z" fill="#366A47"/>
<path d="M13.0617 12.6506C13.0617 14.2724 13.3812 15.8782 14.0018 17.3765C14.6224 18.8748 15.532 20.2362 16.6788 21.3829C17.8255 22.5297 19.1869 23.4393 20.6852 24.06C22.1835 24.6806 23.7894 25 25.4111 25L25.4111 12.6506L13.0617 12.6506Z" fill="#82B492"/>
<path d="M13.0617 12.3494C13.0617 10.7277 12.7423 9.12178 12.1217 7.62349C11.5011 6.12519 10.5914 4.7638 9.44468 3.61705C8.29794 2.47031 6.93655 1.56066 5.43825 0.940042C3.93995 0.319426 2.33409 0 0.712341 0L0.712342 12.3494H13.0617Z" fill="#82B492"/>
<path d="M25.4111 0C25.4111 1.62175 25.0917 3.22761 24.4711 4.72591C23.8505 6.22421 22.9408 7.58559 21.7941 8.73234C20.6473 9.87909 19.2859 10.7887 17.7876 11.4094C16.2893 12.03 14.6835 12.3494 13.0617 12.3494L13.0617 0H25.4111Z" fill="#366A47"/>
</svg>
