<svg width="26" height="24" viewBox="0 0 26 24" fill="none" xmlns="http://www.w3.org/2000/svg">
<path d="M19.4624 11.0796C22.9142 11.0796 25.7124 13.8778 25.7124 17.3296C25.7124 20.7813 22.9142 23.5796 19.4624 23.5796C16.0106 23.5796 13.2124 20.7813 13.2124 17.3296C13.2124 13.8778 16.0106 11.0796 19.4624 11.0796Z" fill="#82B492"/>
<path d="M6.9624 11.0796C3.51062 11.0796 0.712402 13.8778 0.712402 17.3296C0.712402 20.7813 3.51062 23.5796 6.9624 23.5796C10.4142 23.5796 13.2124 20.7813 13.2124 17.3296C13.2124 13.8778 10.4142 11.0796 6.9624 11.0796Z" fill="#366A47"/>
<path d="M19.4624 6.25C19.4624 2.79822 16.6642 -3.01764e-07 13.2124 0C9.76062 3.01764e-07 6.9624 2.79822 6.9624 6.25C6.9624 9.70178 9.76062 12.5 13.2124 12.5C16.6642 12.5 19.4624 9.70178 19.4624 6.25Z" fill="#82B492"/>
</svg>
