<svg width="18" height="18" viewBox="0 0 18 18" fill="none" xmlns="http://www.w3.org/2000/svg">
<path d="M13.352 9.10175C13.2998 9.04839 13.2375 9.00596 13.1687 8.97692C13.1 8.94788 13.0261 8.93282 12.9515 8.93262C12.8768 8.93242 12.8029 8.94707 12.7339 8.97574C12.665 9.0044 12.6025 9.0465 12.55 9.09957C12.4975 9.15265 12.4561 9.21564 12.4282 9.28488C12.4003 9.35411 12.3865 9.42821 12.3875 9.50286C12.3885 9.5775 12.4044 9.65119 12.4342 9.71963C12.464 9.78808 12.5071 9.84991 12.561 9.90152C13.0383 10.3711 13.4169 10.9313 13.6747 11.5492C13.9325 12.1671 14.0643 12.8303 14.0623 13.4998C14.0623 14.1878 12.0902 15.1873 8.99978 15.1873C5.90935 15.1873 3.93728 14.1873 3.93728 13.4987C3.93539 12.8338 4.0654 12.1751 4.3198 11.5607C4.5742 10.9464 4.94793 10.3886 5.41936 9.91969C5.47268 9.8677 5.51514 9.80564 5.5443 9.73712C5.57345 9.66859 5.5887 9.59496 5.58917 9.52049C5.58964 9.44603 5.57532 9.37221 5.54704 9.30332C5.51876 9.23443 5.47709 9.17184 5.42443 9.11918C5.37177 9.06653 5.30918 9.02485 5.24029 8.99657C5.1714 8.96829 5.09758 8.95397 5.02312 8.95444C4.94865 8.95491 4.87502 8.97017 4.80649 8.99932C4.73797 9.02847 4.67591 9.07093 4.62393 9.12426C4.0476 9.69755 3.59073 10.3795 3.27976 11.1305C2.96878 11.8816 2.80989 12.6869 2.81228 13.4998C2.81228 15.3266 5.99997 16.3123 8.99978 16.3123C11.9996 16.3123 15.1873 15.3266 15.1873 13.4998C15.1898 12.6814 15.0287 11.8708 14.7136 11.1156C14.3984 10.3603 13.9355 9.67562 13.352 9.10175Z" fill="#76777A"/>
<path d="M9 9.5625C9.77876 9.5625 10.54 9.33157 11.1876 8.89891C11.8351 8.46626 12.3398 7.8513 12.6378 7.13182C12.9358 6.41233 13.0138 5.62063 12.8618 4.85683C12.7099 4.09303 12.3349 3.39144 11.7842 2.84077C11.2336 2.2901 10.532 1.91509 9.76817 1.76316C9.00437 1.61123 8.21267 1.68921 7.49318 1.98723C6.7737 2.28525 6.15875 2.78993 5.72609 3.43744C5.29343 4.08496 5.0625 4.84624 5.0625 5.625C5.06371 6.66892 5.47894 7.66974 6.2171 8.4079C6.95526 9.14607 7.95608 9.5613 9 9.5625ZM9 2.8125C9.55626 2.8125 10.1 2.97745 10.5625 3.28649C11.0251 3.59553 11.3855 4.03479 11.5984 4.5487C11.8113 5.06262 11.867 5.62812 11.7585 6.17369C11.6499 6.71926 11.3821 7.2204 10.9887 7.61374C10.5954 8.00707 10.0943 8.27494 9.54869 8.38346C9.00312 8.49198 8.43762 8.43628 7.9237 8.22341C7.40979 8.01054 6.97053 7.65006 6.66149 7.18754C6.35245 6.72503 6.1875 6.18126 6.1875 5.625C6.18838 4.87935 6.48498 4.16449 7.01223 3.63723C7.53949 3.10998 8.25435 2.81338 9 2.8125Z" fill="#76777A"/>
</svg>
