<svg width="24" height="24" viewBox="0 0 24 24" fill="none" xmlns="http://www.w3.org/2000/svg">
<path fill-rule="evenodd" clip-rule="evenodd" d="M9.35355 3.64645C9.15829 3.45118 8.84171 3.45118 8.64645 3.64645L3.64645 8.64645C3.45118 8.84171 3.45118 9.15829 3.64645 9.35355L8.64645 14.3536C8.84171 14.5488 9.15829 14.5488 9.35355 14.3536C9.54882 14.1583 9.54882 13.8417 9.35355 13.6464L4.70711 9L9.35355 4.35355C9.54882 4.15829 9.54882 3.84171 9.35355 3.64645Z" fill="white"/>
<path fill-rule="evenodd" clip-rule="evenodd" d="M18.7426 10.2574C17.6174 9.13214 16.0913 8.5 14.5 8.5H4C3.72386 8.5 3.5 8.72386 3.5 9C3.5 9.27614 3.72386 9.5 4 9.5H14.5C15.8261 9.5 17.0979 10.0268 18.0355 10.9645C18.9732 11.9021 19.5 13.1739 19.5 14.5C19.5 15.1566 19.3707 15.8068 19.1194 16.4134C18.8681 17.02 18.4998 17.5712 18.0355 18.0355C17.0979 18.9732 15.8261 19.5 14.5 19.5H11C10.7239 19.5 10.5 19.7239 10.5 20C10.5 20.2761 10.7239 20.5 11 20.5H14.5C16.0913 20.5 17.6174 19.8679 18.7426 18.7426C19.2998 18.1855 19.7417 17.5241 20.0433 16.7961C20.3448 16.0681 20.5 15.2879 20.5 14.5C20.5 12.9087 19.8679 11.3826 18.7426 10.2574Z" fill="white"/>
</svg>
