<svg width="16" height="17" viewBox="0 0 16 17" fill="none" xmlns="http://www.w3.org/2000/svg">
<path fill-rule="evenodd" clip-rule="evenodd" d="M7.99967 2.3335C4.59392 2.3335 1.83301 5.09441 1.83301 8.50016C1.83301 11.9059 4.59392 14.6668 7.99967 14.6668C11.4054 14.6668 14.1663 11.9059 14.1663 8.50016C14.1663 5.09441 11.4054 2.3335 7.99967 2.3335ZM0.833008 8.50016C0.833008 4.54212 4.04163 1.3335 7.99967 1.3335C11.9577 1.3335 15.1663 4.54212 15.1663 8.50016C15.1663 12.4582 11.9577 15.6668 7.99967 15.6668C4.04163 15.6668 0.833008 12.4582 0.833008 8.50016Z" fill="white"/>
<path fill-rule="evenodd" clip-rule="evenodd" d="M8 4C8.27614 4 8.5 4.22386 8.5 4.5V8H11C11.2761 8 11.5 8.22386 11.5 8.5C11.5 8.77614 11.2761 9 11 9H8C7.72386 9 7.5 8.77614 7.5 8.5V4.5C7.5 4.22386 7.72386 4 8 4Z" fill="white"/>
</svg>
