<svg width="18" height="18" viewBox="0 0 18 18" fill="none" xmlns="http://www.w3.org/2000/svg">
<path d="M6 4.3125C5.6925 4.3125 5.4375 4.0575 5.4375 3.75V1.5C5.4375 1.1925 5.6925 0.9375 6 0.9375C6.3075 0.9375 6.5625 1.1925 6.5625 1.5V3.75C6.5625 4.0575 6.3075 4.3125 6 4.3125Z" fill="#76777A"/>
<path d="M12.0002 4.3125C11.6927 4.3125 11.4377 4.0575 11.4377 3.75V1.5C11.4377 1.1925 11.6927 0.9375 12.0002 0.9375C12.3077 0.9375 12.5627 1.1925 12.5627 1.5V3.75C12.5627 4.0575 12.3077 4.3125 12.0002 4.3125Z" fill="#76777A"/>
<path d="M6.375 10.8752C6.2775 10.8752 6.18 10.8527 6.09 10.8152C5.9925 10.7777 5.9175 10.7252 5.8425 10.6577C5.7075 10.5152 5.625 10.3277 5.625 10.1252C5.625 10.0277 5.6475 9.93023 5.685 9.84023C5.7225 9.75023 5.775 9.66773 5.8425 9.59273C5.9175 9.52523 5.9925 9.47273 6.09 9.43523C6.36 9.32273 6.6975 9.38273 6.9075 9.59273C7.0425 9.73523 7.125 9.93023 7.125 10.1252C7.125 10.1702 7.1175 10.2227 7.11 10.2752C7.1025 10.3202 7.0875 10.3652 7.065 10.4102C7.05 10.4552 7.0275 10.5002 6.9975 10.5452C6.975 10.5827 6.9375 10.6202 6.9075 10.6577C6.765 10.7927 6.57 10.8752 6.375 10.8752Z" fill="#76777A"/>
<path d="M9 10.8751C8.9025 10.8751 8.805 10.8526 8.715 10.8151C8.6175 10.7776 8.5425 10.7251 8.4675 10.6576C8.3325 10.5151 8.25 10.3276 8.25 10.1251C8.25 10.0276 8.2725 9.93014 8.31 9.84014C8.3475 9.75014 8.4 9.66764 8.4675 9.59264C8.5425 9.52514 8.6175 9.47264 8.715 9.43514C8.985 9.31514 9.3225 9.38264 9.5325 9.59264C9.6675 9.73514 9.75 9.93014 9.75 10.1251C9.75 10.1701 9.7425 10.2226 9.735 10.2751C9.7275 10.3201 9.7125 10.3651 9.69 10.4101C9.675 10.4551 9.6525 10.5001 9.6225 10.5451C9.6 10.5826 9.5625 10.6201 9.5325 10.6576C9.39 10.7926 9.195 10.8751 9 10.8751Z" fill="#76777A"/>
<path d="M11.6252 10.8751C11.5277 10.8751 11.4302 10.8526 11.3402 10.8151C11.2427 10.7776 11.1677 10.7251 11.0927 10.6576C11.0627 10.6201 11.0327 10.5826 11.0027 10.5451C10.9727 10.5001 10.9502 10.4551 10.9352 10.4101C10.9127 10.3651 10.8977 10.3201 10.8902 10.2751C10.8827 10.2226 10.8752 10.1701 10.8752 10.1251C10.8752 9.93014 10.9577 9.73514 11.0927 9.59264C11.1677 9.52514 11.2427 9.47264 11.3402 9.43514C11.6177 9.31514 11.9477 9.38264 12.1577 9.59264C12.2927 9.73514 12.3752 9.93014 12.3752 10.1251C12.3752 10.1701 12.3677 10.2226 12.3602 10.2751C12.3527 10.3201 12.3377 10.3651 12.3152 10.4101C12.3002 10.4551 12.2777 10.5001 12.2477 10.5451C12.2252 10.5826 12.1877 10.6201 12.1577 10.6576C12.0152 10.7926 11.8202 10.8751 11.6252 10.8751Z" fill="#76777A"/>
<path d="M6.375 13.5003C6.2775 13.5003 6.18 13.4779 6.09 13.4404C6 13.4029 5.9175 13.3503 5.8425 13.2828C5.7075 13.1403 5.625 12.9453 5.625 12.7503C5.625 12.6528 5.6475 12.5553 5.685 12.4653C5.7225 12.3678 5.775 12.2854 5.8425 12.2179C6.12 11.9404 6.63 11.9404 6.9075 12.2179C7.0425 12.3604 7.125 12.5553 7.125 12.7503C7.125 12.9453 7.0425 13.1403 6.9075 13.2828C6.765 13.4178 6.57 13.5003 6.375 13.5003Z" fill="#76777A"/>
<path d="M9 13.5003C8.805 13.5003 8.61 13.4178 8.4675 13.2828C8.3325 13.1403 8.25 12.9453 8.25 12.7503C8.25 12.6528 8.2725 12.5553 8.31 12.4653C8.3475 12.3678 8.4 12.2854 8.4675 12.2179C8.745 11.9404 9.255 11.9404 9.5325 12.2179C9.6 12.2854 9.6525 12.3678 9.69 12.4653C9.7275 12.5553 9.75 12.6528 9.75 12.7503C9.75 12.9453 9.6675 13.1403 9.5325 13.2828C9.39 13.4178 9.195 13.5003 9 13.5003Z" fill="#76777A"/>
<path d="M11.6252 13.5002C11.4302 13.5002 11.2352 13.4177 11.0927 13.2827C11.0252 13.2152 10.9727 13.1327 10.9352 13.0352C10.8977 12.9452 10.8752 12.8477 10.8752 12.7502C10.8752 12.6527 10.8977 12.5552 10.9352 12.4652C10.9727 12.3677 11.0252 12.2852 11.0927 12.2177C11.2652 12.0452 11.5277 11.9627 11.7677 12.0152C11.8202 12.0227 11.8652 12.0377 11.9102 12.0602C11.9552 12.0752 12.0002 12.0977 12.0452 12.1277C12.0827 12.1502 12.1202 12.1877 12.1577 12.2177C12.2927 12.3602 12.3752 12.5552 12.3752 12.7502C12.3752 12.9452 12.2927 13.1402 12.1577 13.2827C12.0152 13.4177 11.8202 13.5002 11.6252 13.5002Z" fill="#76777A"/>
<path d="M15.375 7.37988H2.625C2.3175 7.37988 2.0625 7.12488 2.0625 6.81738C2.0625 6.50988 2.3175 6.25488 2.625 6.25488H15.375C15.6825 6.25488 15.9375 6.50988 15.9375 6.81738C15.9375 7.12488 15.6825 7.37988 15.375 7.37988Z" fill="#76777A"/>
<path d="M12 17.0625H6C3.2625 17.0625 1.6875 15.4875 1.6875 12.75V6.375C1.6875 3.6375 3.2625 2.0625 6 2.0625H12C14.7375 2.0625 16.3125 3.6375 16.3125 6.375V12.75C16.3125 15.4875 14.7375 17.0625 12 17.0625ZM6 3.1875C3.855 3.1875 2.8125 4.23 2.8125 6.375V12.75C2.8125 14.895 3.855 15.9375 6 15.9375H12C14.145 15.9375 15.1875 14.895 15.1875 12.75V6.375C15.1875 4.23 14.145 3.1875 12 3.1875H6Z" fill="#76777A"/>
</svg>
