<svg width="51" height="51" viewBox="0 0 51 51" fill="none" xmlns="http://www.w3.org/2000/svg">
<path fill-rule="evenodd" clip-rule="evenodd" d="M36 37.5C36.8284 37.5 37.5 36.8284 37.5 36V15C37.5 14.1716 36.8284 13.5 36 13.5C35.1716 13.5 34.5 14.1716 34.5 15V34.5H15C14.1716 34.5 13.5 35.1716 13.5 36C13.5 36.8284 14.1716 37.5 15 37.5H36Z" fill="white"/>
<path fill-rule="evenodd" clip-rule="evenodd" d="M37.0607 37.0607C37.6464 36.4749 37.6464 35.5251 37.0607 34.9393L16.0607 13.9393C15.4749 13.3536 14.5251 13.3536 13.9393 13.9393C13.3536 14.5251 13.3536 15.4749 13.9393 16.0607L34.9393 37.0607C35.5251 37.6464 36.4749 37.6464 37.0607 37.0607Z" fill="white"/>
</svg>
