<svg width="60" height="60" viewBox="0 0 60 60" fill="none" xmlns="http://www.w3.org/2000/svg">
<path fill-rule="evenodd" clip-rule="evenodd" d="M30 5.5C43.531 5.5 54.5 16.469 54.5 30C54.5 43.531 43.531 54.5 30 54.5C16.469 54.5 5.5 43.531 5.5 30C5.5 16.469 16.469 5.5 30 5.5ZM55.5 30C55.5 15.9167 44.0833 4.5 30 4.5C15.9167 4.5 4.5 15.9167 4.5 30C4.5 44.0833 15.9167 55.5 30 55.5C44.0833 55.5 55.5 44.0833 55.5 30Z" fill="#386A48"/>
<path fill-rule="evenodd" clip-rule="evenodd" d="M41 30C41 29.4477 40.5523 29 40 29H20C19.4477 29 19 29.4477 19 30C19 30.5523 19.4477 31 20 31H40C40.5523 31 41 30.5523 41 30Z" fill="#386A48"/>
<path fill-rule="evenodd" clip-rule="evenodd" d="M29.2929 19.2929C28.9024 19.6834 28.9024 20.3166 29.2929 20.7071L38.5858 30L29.2929 39.2929C28.9024 39.6834 28.9024 40.3166 29.2929 40.7071C29.6834 41.0976 30.3166 41.0976 30.7071 40.7071L40.7071 30.7071C41.0976 30.3166 41.0976 29.6834 40.7071 29.2929L30.7071 19.2929C30.3166 18.9024 29.6834 18.9024 29.2929 19.2929Z" fill="#386A48"/>
</svg>
