<svg width="60" height="60" viewBox="0 0 60 60" fill="none" xmlns="http://www.w3.org/2000/svg">
<path fill-rule="evenodd" clip-rule="evenodd" d="M30 5.5C16.469 5.5 5.5 16.469 5.5 30C5.5 43.531 16.469 54.5 30 54.5C43.531 54.5 54.5 43.531 54.5 30C54.5 16.469 43.531 5.5 30 5.5ZM4.5 30C4.5 15.9167 15.9167 4.5 30 4.5C44.0833 4.5 55.5 15.9167 55.5 30C55.5 44.0833 44.0833 55.5 30 55.5C15.9167 55.5 4.5 44.0833 4.5 30Z" fill="#B7D0BF"/>
<path fill-rule="evenodd" clip-rule="evenodd" d="M19 30C19 29.4477 19.4477 29 20 29H40C40.5523 29 41 29.4477 41 30C41 30.5523 40.5523 31 40 31H20C19.4477 31 19 30.5523 19 30Z" fill="#B7D0BF"/>
<path fill-rule="evenodd" clip-rule="evenodd" d="M30.7071 19.2929C31.0976 19.6834 31.0976 20.3166 30.7071 20.7071L21.4142 30L30.7071 39.2929C31.0976 39.6834 31.0976 40.3166 30.7071 40.7071C30.3166 41.0976 29.6834 41.0976 29.2929 40.7071L19.2929 30.7071C18.9024 30.3166 18.9024 29.6834 19.2929 29.2929L29.2929 19.2929C29.6834 18.9024 30.3166 18.9024 30.7071 19.2929Z" fill="#B7D0BF"/>
</svg>
