<svg width="22" height="24" viewBox="0 0 22 24" fill="none" xmlns="http://www.w3.org/2000/svg">
<path fill-rule="evenodd" clip-rule="evenodd" d="M17.3731 9.5C17.3731 13.8482 13.8482 17.3731 9.5 17.3731C5.15182 17.3731 1.62692 13.8482 1.62692 9.5C1.62692 5.15182 5.15182 1.62692 9.5 1.62692C13.8482 1.62692 17.3731 5.15182 17.3731 9.5ZM14.456 17.6064C13.0132 18.4904 11.3161 19 9.5 19C4.25329 19 0 14.7467 0 9.5C0 4.25329 4.25329 0 9.5 0C14.7467 0 19 4.25329 19 9.5C19 12.3395 17.7542 14.8881 15.7794 16.6289L21.5752 22.4248L20.4248 23.5752L14.456 17.6064Z" fill="#ACB1C6"/>
</svg>
