<svg width="24" height="24" viewBox="0 0 24 24" fill="none" xmlns="http://www.w3.org/2000/svg">
<g clip-path="url(#clip0_4902_3198)">
<path d="M11.6929 3.89746C6.69334 3.89746 2.33887 7.03759 0 11.6928C2.33887 16.3489 6.69334 19.4879 11.6929 19.4879C16.6925 19.4879 21.047 16.3489 23.3858 11.6928C21.047 7.03788 16.6925 3.89746 11.6929 3.89746ZM11.6929 17.5393C7.9304 17.5393 4.37725 15.3229 2.22017 11.6928C4.37719 8.06278 7.9304 5.84638 11.6929 5.84638C15.4554 5.84638 19.0086 8.06278 21.1657 11.6928C19.0086 15.3229 15.4554 17.5393 11.6929 17.5393Z" fill="#386A48"/>
<path d="M11.6929 7.30811C9.27015 7.30811 7.30811 9.27015 7.30811 11.6929C7.30811 14.1148 9.27015 16.0778 11.6929 16.0778C14.1145 16.0778 16.0778 14.1148 16.0778 11.6929C16.0778 9.27015 14.1145 7.30811 11.6929 7.30811ZM11.6929 14.1292C10.3474 14.1292 9.25702 13.0388 9.25702 11.6929C9.25702 10.3474 10.3474 9.25702 11.6929 9.25702C13.0385 9.25702 14.1289 10.3474 14.1289 11.6929C14.1289 13.0388 13.0385 14.1292 11.6929 14.1292Z" fill="#386A48"/>
</g>
<defs>
<clipPath id="clip0_4902_3198">
<rect width="23.3858" height="23.3858" fill="white"/>
</clipPath>
</defs>
</svg>
