<svg width="60" height="61" viewBox="0 0 60 61" fill="none" xmlns="http://www.w3.org/2000/svg">
<path d="M48.5883 0.5H48.8402C49.2418 0.607031 49.4715 0.853125 49.5293 1.23828C49.7941 3.01094 50.0578 4.78711 50.3203 6.5668C50.3212 6.57207 50.3235 6.57701 50.3269 6.58108C50.3304 6.58514 50.3349 6.58819 50.34 6.58988C50.345 6.59157 50.3505 6.59184 50.3557 6.59066C50.3609 6.58948 50.3657 6.58691 50.3695 6.5832C50.7625 6.17852 51.1738 5.76758 51.6035 5.35039C51.9738 4.99062 52.473 5.04336 52.8187 5.39375C53.5836 6.16953 54.3254 6.91172 55.0441 7.62031C55.5121 8.08203 55.5176 8.54062 55.0605 8.99609C54.6996 9.35547 54.3188 9.73594 53.918 10.1375C53.9146 10.1407 53.9122 10.1448 53.9111 10.1494C53.91 10.1539 53.9102 10.1586 53.9117 10.163C53.9131 10.1675 53.9158 10.1714 53.9194 10.1743C53.923 10.1773 53.9274 10.1791 53.932 10.1797C55.518 10.4117 57.1051 10.6477 58.6934 10.8875C59.3824 10.9918 59.8242 10.9918 60 11.6727V11.9047C59.9359 12.1125 59.8758 12.2449 59.8195 12.302C57.8086 14.3145 55.8031 16.3203 53.8031 18.3195C53.7797 18.343 53.7754 18.3687 53.7902 18.3969C56.8668 24.2617 57.8492 30.4512 56.7375 36.9652C56.5953 37.7957 56.427 38.5586 56.2324 39.2539C54.4004 45.8016 50.8398 51.0363 45.5508 54.9582C41.0773 58.2754 35.9586 60.1227 30.1945 60.5H27.0293C19.5941 59.9805 13.3082 57.1348 8.17148 51.9629C7.6168 51.4043 7.09219 50.8262 6.59766 50.2285C2.61406 45.4152 0.414844 39.8301 0 33.473V30.2328C0.0945313 29.1461 0.184766 28.3176 0.270703 27.7473C1.3793 20.3879 5.24531 13.7973 11.127 9.24922C19.9828 2.40078 32.1844 1.40352 42.0832 6.71094C42.0988 6.71941 42.1166 6.72262 42.1342 6.72008C42.1517 6.71755 42.1679 6.70941 42.1805 6.69688C44.1258 4.75 46.0727 2.80234 48.0211 0.853906C48.2047 0.670312 48.3937 0.552344 48.5883 0.5ZM42.6797 8.51445C42.6756 8.51856 42.6725 8.52355 42.6707 8.52904C42.6689 8.53452 42.6683 8.54036 42.6691 8.54609L43.4004 13.4609C43.4014 13.4677 43.4044 13.4741 43.4088 13.4794C43.4132 13.4847 43.4191 13.4886 43.4256 13.4908C43.4321 13.493 43.4391 13.4933 43.4459 13.4918C43.4526 13.4902 43.4587 13.4869 43.4637 13.482L48.8707 8.07617C48.8748 8.07207 48.8779 8.06708 48.8797 8.06159C48.8815 8.0561 48.8821 8.05026 48.8812 8.04453L48.15 3.12852C48.1489 3.1217 48.146 3.11531 48.1416 3.11004C48.1371 3.10478 48.1313 3.10084 48.1248 3.09866C48.1183 3.09648 48.1112 3.09614 48.1045 3.09769C48.0978 3.09923 48.0916 3.1026 48.0867 3.10742L42.6797 8.51445ZM12.573 17.4266C20.1914 9.04766 32.9848 7.96719 41.8992 14.9621C41.9492 15.0004 41.9695 14.9887 41.9602 14.927C41.65 12.8254 41.3289 10.6652 40.9969 8.44648C40.9781 8.32461 40.9711 8.18398 41.0039 8.06445C41.0172 8.01602 41.0016 7.98047 40.957 7.95781C27.3 0.966406 10.6043 6.65 4.14844 20.5484C0.678516 28.018 0.810938 36.6699 4.51992 44.0305C9.82266 54.5539 21.3645 60.425 33.0199 58.4891C43.7414 56.7078 52.2773 48.6934 54.8203 38.1336C56.2922 32.0199 55.5105 25.6555 52.7859 20.0281C52.7078 19.8672 52.6246 19.7063 52.5363 19.5453C52.5176 19.5094 52.4883 19.4961 52.4484 19.5055C52.3453 19.5289 52.2383 19.5324 52.1273 19.516C49.8648 19.1777 47.6836 18.8531 45.5836 18.5422C45.5141 18.532 45.5012 18.5547 45.5449 18.6102C49.323 23.423 50.85 29.5203 49.8469 35.5777C48.9234 41.157 45.818 46.025 41.3133 49.3754C38.4973 51.4684 35.0355 52.8559 31.7051 53.3105C26.266 54.0543 21.2496 52.9418 16.6559 49.973C13.9195 48.2047 11.5535 45.6488 9.93516 42.8902C5.15039 34.7328 6.22383 24.4086 12.573 17.4266ZM53.373 8.26836L52.2328 7.12813C52.2264 7.12161 52.2187 7.11643 52.2103 7.1129C52.2018 7.10936 52.1927 7.10754 52.1836 7.10754C52.1744 7.10754 52.1654 7.10936 52.1569 7.1129C52.1485 7.11643 52.1408 7.12161 52.1344 7.12813L29.2371 30.0266C29.1485 30.1152 29.0755 30.2176 29.0222 30.3279C28.9689 30.4383 28.9364 30.5545 28.9265 30.6699C28.9166 30.7852 28.9295 30.8975 28.9645 31.0002C28.9995 31.103 29.0559 31.1942 29.1305 31.2687L29.2324 31.3707C29.3069 31.4453 29.3982 31.5017 29.5009 31.5367C29.6037 31.5717 29.716 31.5846 29.8313 31.5747C29.9467 31.5648 30.0629 31.5322 30.1732 31.479C30.2836 31.4257 30.386 31.3526 30.4746 31.2641L53.373 8.3668C53.3796 8.36036 53.3847 8.3527 53.3883 8.34425C53.3918 8.3358 53.3936 8.32674 53.3936 8.31758C53.3936 8.30842 53.3918 8.29935 53.3883 8.2909C53.3847 8.28245 53.3796 8.27479 53.373 8.26836ZM47.0191 17.0375C47.0142 17.0423 47.0108 17.0484 47.0092 17.055C47.0076 17.0617 47.0079 17.0687 47.0101 17.0752C47.0123 17.0817 47.0163 17.0875 47.0216 17.0918C47.027 17.0961 47.0334 17.0988 47.0402 17.0996L51.9551 17.8332C51.9606 17.8339 51.9663 17.8333 51.9715 17.8315C51.9768 17.8297 51.9816 17.8266 51.9855 17.8227L57.3938 12.4133C57.3986 12.4086 57.4021 12.4026 57.4038 12.396C57.4054 12.3894 57.4052 12.3825 57.4031 12.376C57.4011 12.3696 57.3972 12.3638 57.392 12.3594C57.3869 12.355 57.3805 12.3522 57.3738 12.3512L52.4578 11.6187C52.4523 11.618 52.4466 11.6186 52.4413 11.6205C52.4361 11.6223 52.4313 11.6253 52.4273 11.6293L47.0191 17.0375ZM26.4469 17.5379C30.0902 17.0023 33.8613 17.8379 36.8777 19.9977C36.8893 20.0058 36.9032 20.0097 36.9172 20.0086C36.9311 20.0076 36.9441 20.0016 36.9539 19.9918L40.7426 16.2031C40.7474 16.1982 40.7511 16.1924 40.7535 16.1859C40.7559 16.1795 40.7569 16.1727 40.7565 16.1659C40.7561 16.1591 40.7542 16.1526 40.751 16.1467C40.7477 16.1407 40.7433 16.1356 40.7379 16.1316C35.6543 12.2539 29.1609 11.0105 23.0344 12.7695C11.2348 16.1562 5.26875 29.3785 10.5305 40.482C14.6168 49.1047 24.2027 53.5766 33.3996 51.2879C36.5996 50.491 39.4137 48.9992 41.8418 46.8125C45.5707 43.4555 47.7527 39.2391 48.3879 34.1633C48.4785 33.443 48.5195 32.6727 48.5109 31.8523C48.4641 27.3781 47.0836 23.3477 44.3695 19.7609C44.3654 19.7556 44.3601 19.7512 44.3541 19.7481C44.3482 19.7449 44.3416 19.743 44.3348 19.7426C44.3281 19.7422 44.3213 19.7431 44.315 19.7455C44.3086 19.7479 44.3029 19.7515 44.298 19.7563L40.5258 23.5297C40.4945 23.5617 40.4914 23.5957 40.5164 23.6316C43.9266 28.5664 44.0109 35.0527 40.6336 40.032C35.7633 47.2133 25.684 48.6137 19.0957 42.8973C14.9543 39.3031 13.1906 33.7695 14.4844 28.448C15.873 22.7363 20.632 18.391 26.4469 17.5379ZM34.5855 36.4426C32.5699 39.1074 29.1398 40.1328 25.9969 39.0078C23.9449 38.2719 22.2809 36.6371 21.5156 34.5758C19.6887 29.6586 23.2828 24.4602 28.5164 24.4109C29.6414 24.4008 30.7242 24.6398 31.7648 25.1281C31.7891 25.1391 31.8105 25.1352 31.8293 25.1164L35.7059 21.2398C35.7113 21.2344 35.7155 21.2279 35.718 21.2206C35.7206 21.2134 35.7215 21.2057 35.7207 21.198C35.72 21.1904 35.7175 21.183 35.7135 21.1765C35.7095 21.1699 35.7041 21.1644 35.6977 21.1602C28.8234 16.6449 19.5961 19.5805 16.602 27.1941C14.7188 31.9848 15.873 37.4305 19.5129 41.0457C25.275 46.7668 34.8563 45.7941 39.3387 39.0125C42.1934 34.6941 42.198 29.1441 39.3363 24.8035C39.3323 24.7973 39.327 24.7921 39.3207 24.7883C39.3143 24.7845 39.3072 24.7822 39.2998 24.7815C39.2924 24.7808 39.2848 24.7818 39.2778 24.7844C39.2707 24.787 39.2643 24.7911 39.259 24.7965L35.4082 28.6473C35.3941 28.6609 35.3845 28.6786 35.3807 28.6979C35.377 28.7171 35.3792 28.7371 35.3871 28.7551C36.5203 31.3004 36.2754 34.2078 34.5855 36.4426ZM27.8941 32.3504C27.0082 31.3379 27.0996 29.8449 28.0512 28.8945C28.8918 28.0555 29.7078 27.2395 30.4992 26.4465C30.5328 26.4129 30.527 26.3887 30.4816 26.3738C28.3043 25.6543 26.0016 26.1805 24.4055 27.8117C22.0664 30.2035 22.2141 34.0672 24.6938 36.2691C27.5531 38.8074 32.0414 38.007 33.8004 34.5781C34.5379 33.1406 34.6461 31.6195 34.125 30.0148C34.1228 30.0085 34.119 30.0028 34.114 29.9983C34.109 29.9938 34.1029 29.9907 34.0964 29.9891C34.0898 29.9876 34.083 29.9878 34.0765 29.9896C34.0701 29.9914 34.0642 29.9949 34.0594 29.9996C33.3102 30.7379 32.5684 31.482 31.834 32.232C31.5168 32.5555 31.2145 32.7934 30.927 32.9457C29.9121 33.4813 28.6547 33.2164 27.8941 32.3504Z" fill="white"/>
</svg>
