<svg width="60" height="61" viewBox="0 0 60 61" fill="none" xmlns="http://www.w3.org/2000/svg">
<path d="M41.7833 4.34258L38.8431 4.46094C38.8376 4.46125 38.8321 4.46046 38.8269 4.45862C38.8218 4.45677 38.817 4.4539 38.813 4.45019C38.8089 4.44647 38.8057 4.44198 38.8034 4.43698C38.8011 4.43199 38.7999 4.42658 38.7997 4.42109L38.7294 2.66445C38.7271 2.61133 38.7525 2.58359 38.8056 2.58125C40.397 2.52578 42.0763 2.45703 43.8435 2.375C44.4857 2.34453 44.9743 2.64922 45.0025 3.33594C45.0743 5.10859 45.1443 6.84023 45.2122 8.53086C45.2125 8.53655 45.2117 8.54226 45.2098 8.54764C45.2079 8.55302 45.205 8.55798 45.2012 8.56222C45.1974 8.56647 45.1928 8.56992 45.1876 8.57238C45.1825 8.57484 45.1769 8.57626 45.1712 8.57656L43.4111 8.64687C43.3634 8.64922 43.3384 8.62656 43.3361 8.5789L43.2224 5.75469C43.22 5.68984 43.197 5.68164 43.1532 5.73008L36.64 12.9781C36.6312 12.9876 36.6257 12.9996 36.6245 13.0123C36.6232 13.025 36.6262 13.0377 36.6329 13.0484C37.1689 13.9164 37.67 14.7469 38.1364 15.5398C38.7775 16.6297 38.3521 17.9961 37.2646 18.6266C37.0021 18.7789 36.7353 18.9254 36.4642 19.066C36.2618 19.1699 36.1771 19.3285 36.2099 19.5418C36.3583 20.5207 36.3583 21.5922 36.2099 22.7562C36.1853 22.9496 36.2884 23.1008 36.4536 23.1852C36.7263 23.3258 36.9927 23.4711 37.2529 23.6211C38.3919 24.2773 38.7833 25.6566 38.0943 26.7969C37.3568 28.018 36.6298 29.2203 35.9134 30.4039C35.2208 31.5488 33.865 31.9977 32.7095 31.3719C32.4032 31.2055 32.1118 31.0461 31.8353 30.8937C31.6279 30.7801 31.3864 30.8398 31.2036 30.9723C30.3146 31.6152 29.3626 32.1445 28.3478 32.5602C28.1564 32.6391 28.0583 32.7758 28.0536 32.9703C28.0466 33.2172 28.045 33.4695 28.0489 33.7273C28.0724 35.2109 26.9251 36.1508 25.5165 36.1344C24.2236 36.1187 22.8544 36.118 21.4091 36.132C20.9661 36.1367 20.5978 36.0809 20.304 35.9645C19.3935 35.6023 18.8075 34.748 18.8228 33.7531C18.8267 33.4781 18.8232 33.2043 18.8122 32.9316C18.804 32.7289 18.6306 32.6023 18.4583 32.5309C17.445 32.1105 16.5111 31.5879 15.6564 30.9629C15.5943 30.9172 15.4864 30.868 15.4103 30.8527C15.3618 30.8426 15.3423 30.8129 15.3517 30.7637L15.6903 29.0621C15.6989 29.0191 15.7251 29.0016 15.7689 29.0094C16.3478 29.1137 16.8259 29.491 17.3146 29.8215C17.8177 30.1605 18.3673 30.4527 18.9634 30.698C19.779 31.0344 20.3509 31.4773 20.597 32.3023C20.7411 32.7898 20.6966 33.3137 20.7048 33.8141C20.7063 33.9302 20.7537 34.0411 20.8366 34.1227C20.9195 34.2043 21.0313 34.25 21.1478 34.25H25.7239C25.8418 34.25 25.9549 34.2037 26.0389 34.121C26.1228 34.0384 26.1709 33.926 26.1728 33.8082C26.1759 33.5762 26.1763 33.3344 26.1739 33.0828C26.1646 32.034 26.72 31.1891 27.6903 30.7977C28.5302 30.4578 29.3298 30.0133 30.0892 29.4641C30.6564 29.0539 31.3126 28.8734 32.0099 28.9988C32.5782 29.1008 33.0517 29.4219 33.5532 29.702C33.672 29.7687 33.8121 29.7865 33.9439 29.7518C34.0758 29.717 34.1891 29.6323 34.2599 29.5156L36.4993 25.8172C36.5271 25.7712 36.5453 25.72 36.5528 25.6668C36.5603 25.6136 36.557 25.5594 36.5429 25.5076C36.5289 25.4557 36.5045 25.4073 36.4712 25.3653C36.438 25.3232 36.3965 25.2884 36.3493 25.2629C36.0806 25.1176 35.8111 24.968 35.5407 24.8141C34.8236 24.4055 34.4298 23.8242 34.3595 23.0703C34.3321 22.7789 34.347 22.409 34.404 21.9605C34.4782 21.3785 34.4704 20.7426 34.3806 20.0527C34.322 19.6012 34.3271 19.2242 34.3958 18.9219C34.6372 17.859 35.4353 17.4605 36.3259 17.0059C36.3766 16.98 36.4215 16.9439 36.4577 16.8999C36.4939 16.8559 36.5206 16.8049 36.5362 16.75C36.5518 16.6952 36.556 16.6377 36.5484 16.5811C36.5409 16.5245 36.5218 16.47 36.4923 16.4211C35.7673 15.2211 35.0267 13.9961 34.2704 12.7461C34.0958 12.4566 33.7642 12.4074 33.4864 12.5762C33.2536 12.7168 33.0216 12.8484 32.7903 12.9711C31.8095 13.4902 30.8614 13.3496 29.9931 12.718C29.3251 12.2328 28.6181 11.8379 27.872 11.5332C27.0446 11.1957 26.4657 10.7 26.2489 9.84453C26.1364 9.40156 26.1821 8.90117 26.1704 8.43359C26.1677 8.31764 26.1197 8.20736 26.0367 8.12633C25.9537 8.04531 25.8423 7.99997 25.7263 8H21.1489C21.0309 8 20.9177 8.04671 20.8341 8.12994C20.7504 8.21317 20.7031 8.32613 20.7025 8.44414C20.7001 8.93281 20.7388 9.4332 20.604 9.90898C20.406 10.6086 19.8986 11.1547 19.2259 11.4277C18.3603 11.7801 17.5525 12.2277 16.8025 12.7707C16.1228 13.2629 15.2837 13.4316 14.4986 13.1504C14.0685 12.9957 13.6911 12.7332 13.2903 12.534C13.1738 12.4758 13.0397 12.4636 12.9146 12.4998C12.7895 12.5361 12.6826 12.6182 12.6153 12.7297L10.3736 16.4375C10.3469 16.4813 10.3293 16.53 10.3216 16.5807C10.314 16.6314 10.3165 16.6832 10.3291 16.7329C10.3416 16.7826 10.3639 16.8294 10.3947 16.8704C10.4255 16.9114 10.4641 16.9459 10.5083 16.9719C10.7458 17.1109 10.9857 17.243 11.2278 17.368C12.2814 17.9117 12.6564 18.8527 12.4958 20.0023C12.3919 20.7508 12.3978 21.5492 12.5134 22.3977C12.5618 22.7594 12.5505 23.0746 12.4794 23.3434C12.2017 24.3863 11.4587 24.7848 10.5517 25.2359C10.4568 25.2828 10.3665 25.3824 10.3384 25.4879C10.3267 25.5324 10.2978 25.5531 10.2517 25.55L8.52316 25.4328C8.47629 25.4297 8.45558 25.4047 8.46105 25.3578C8.60871 24.1262 9.43839 23.6809 10.4321 23.1711C10.595 23.0879 10.6911 22.8957 10.6642 22.7164C10.515 21.7234 10.5138 20.657 10.6607 19.5172C10.6857 19.3227 10.6193 19.1812 10.4614 19.093C10.1771 18.9352 9.89933 18.7805 9.62824 18.6289C8.40597 17.9422 8.11183 16.5242 8.83488 15.3535C9.488 14.2973 10.1517 13.1977 10.8259 12.0547C11.0884 11.6086 11.3486 11.2895 11.6064 11.0973C12.4349 10.4773 13.4532 10.4469 14.3439 10.9695C14.5814 11.1094 14.8161 11.2391 15.0482 11.3586C15.2614 11.4687 15.497 11.4055 15.6833 11.2707C16.5771 10.6254 17.5196 10.1023 18.5111 9.70156C18.7196 9.61836 18.8415 9.43086 18.8321 9.20351C18.8173 8.86445 18.8196 8.54609 18.8392 8.24844C18.906 7.23945 19.6958 6.36523 20.6568 6.18008C20.9294 6.12695 21.4275 6.10664 22.1509 6.11914C23.2798 6.13789 24.3818 6.1375 25.4568 6.11797C25.9005 6.11015 26.2712 6.16562 26.5689 6.28437C27.5087 6.65937 28.0712 7.53008 28.0501 8.54609C28.0439 8.81015 28.0454 9.06367 28.0548 9.30664C28.0607 9.47773 28.2013 9.63125 28.3548 9.69219C29.2993 10.0656 30.2618 10.6027 31.2423 11.3035C31.4919 11.4816 31.7286 11.423 31.97 11.2883C32.4142 11.0387 32.8642 10.7445 33.3634 10.6543C34.1751 10.5082 34.8954 10.7277 35.5243 11.3129C35.5579 11.3441 35.59 11.3426 35.6204 11.3082L41.815 4.41172C41.8587 4.36328 41.8482 4.34023 41.7833 4.34258Z" fill="white"/>
<path d="M29.9577 20.4851C29.9573 20.4802 29.9554 20.4755 29.9523 20.4716C29.9492 20.4676 29.9451 20.4647 29.9404 20.4631C29.9357 20.4615 29.9306 20.4613 29.9258 20.4625C29.921 20.4637 29.9166 20.4663 29.9132 20.4699C28.7593 21.7433 27.6112 23.0234 26.469 24.3101C26.2214 24.589 26.0132 24.7586 25.8444 24.8187C25.3405 24.998 24.9339 24.7543 24.6585 24.3371C23.6257 22.7715 22.6315 21.2785 21.6761 19.8582C21.6725 19.853 21.6678 19.8487 21.6623 19.8455C21.6568 19.8424 21.6507 19.8406 21.6444 19.8401C21.6381 19.8397 21.6318 19.8406 21.6259 19.8429C21.62 19.8453 21.6147 19.8489 21.6105 19.8535L3.76514 38.5836C3.72764 38.6219 3.68975 38.6226 3.65147 38.5859L2.37998 37.3777C2.37593 37.3741 2.37265 37.3696 2.37033 37.3647C2.36801 37.3597 2.36671 37.3544 2.36649 37.3489C2.36627 37.3435 2.36714 37.338 2.36906 37.3329C2.37097 37.3278 2.37389 37.3231 2.37764 37.3191C8.51045 30.8855 14.7081 24.3773 20.9706 17.7945C21.1315 17.625 21.2886 17.5082 21.4417 17.4441C21.873 17.2613 22.3358 17.45 22.589 17.8308C23.6226 19.3816 24.6261 20.8875 25.5995 22.3484C25.6042 22.3554 25.6104 22.3612 25.6177 22.3653C25.625 22.3695 25.6331 22.372 25.6414 22.3725C25.6498 22.3731 25.6582 22.3718 25.666 22.3686C25.6737 22.3654 25.6807 22.3605 25.6862 22.3543L29.3214 18.3113C29.3433 18.2871 29.3472 18.2601 29.3331 18.2305C26.9577 13.4586 20.2429 13.3297 17.6812 17.9797C17.6593 18.0203 17.628 18.0301 17.5874 18.009L16.0522 17.2062C16.0077 17.1828 15.9976 17.1488 16.0218 17.1043C18.8636 11.9668 25.7237 11.1781 29.6718 15.439C31.2503 17.143 32.0788 19.5687 31.8362 21.916C31.1319 28.7433 23.1855 31.9437 17.9272 27.5035C17.8937 27.4746 17.8917 27.4437 17.9214 27.4109L19.0839 26.0937C19.0892 26.0876 19.0957 26.0826 19.103 26.079C19.1103 26.0754 19.1183 26.0733 19.1265 26.0729C19.1347 26.0725 19.1429 26.0737 19.1507 26.0764C19.1585 26.0792 19.1656 26.0835 19.1718 26.089C21.3409 28.0543 24.6644 28.1703 27.0749 26.5965C29.0601 25.3015 30.2331 22.8898 29.9577 20.4851Z" fill="white"/>
<path d="M15.0586 56.75L24.2824 56.7512C24.2947 56.7512 24.3069 56.7488 24.3183 56.7441C24.3297 56.7393 24.34 56.7324 24.3487 56.7237C24.3574 56.715 24.3643 56.7047 24.369 56.6933C24.3737 56.6819 24.3762 56.6698 24.3762 56.6574C24.3762 51.7449 24.3758 46.8028 24.375 41.8309C24.375 41.1418 24.825 40.8043 25.4602 40.8067C28.5523 40.8153 31.5922 40.818 34.5797 40.8149C35.25 40.8137 35.6273 41.2133 35.6262 41.8403C35.6223 46.8887 35.6223 51.8192 35.6262 56.6317C35.6262 56.663 35.6386 56.6932 35.6608 56.7154C35.683 56.7375 35.7131 56.75 35.7445 56.75L44.8863 56.7512C44.9013 56.7512 44.916 56.7482 44.9298 56.7425C44.9436 56.7368 44.9562 56.7285 44.9667 56.7179C44.9773 56.7073 44.9856 56.6948 44.9913 56.681C44.9971 56.6672 45 56.6524 45 56.6375C44.9992 45.0735 44.9996 33.5516 45.0012 22.0719C45.0012 21.4391 45.5004 21.1168 46.084 21.118C49.177 21.1274 52.2172 21.1305 55.2047 21.1274C55.8457 21.1262 56.2512 21.5094 56.2512 22.1176C56.2504 33.841 56.2496 45.3465 56.2488 56.634C56.2488 56.6648 56.2611 56.6943 56.2828 56.716C56.3046 56.7378 56.3341 56.75 56.3648 56.75H58.0664C58.0819 56.75 58.0968 56.7562 58.1078 56.7672C58.1188 56.7782 58.125 56.7931 58.125 56.8086V58.5664C58.125 58.6055 58.1055 58.625 58.0664 58.625H1.93359C1.89453 58.625 1.875 58.6055 1.875 58.5664V56.8379C1.875 56.7793 1.9043 56.75 1.96289 56.75H3.66563C3.71172 56.75 3.73477 56.727 3.73477 56.6809C3.73086 54.8129 3.73125 52.9863 3.73594 51.2012C3.73828 50.5473 4.16016 50.1828 4.76836 50.184C7.98867 50.1895 11.068 50.1903 14.0062 50.1863C14.5898 50.1852 14.9801 50.5965 14.9812 51.2071C14.9836 52.95 14.9836 54.7719 14.9812 56.6727C14.9812 56.7242 15.007 56.75 15.0586 56.75ZM54.375 23.0832C54.375 23.0612 54.3662 23.04 54.3506 23.0244C54.335 23.0088 54.3139 23 54.2918 23H46.9582C46.9361 23 46.915 23.0088 46.8994 23.0244C46.8838 23.04 46.875 23.0612 46.875 23.0832V56.6668C46.875 56.6889 46.8838 56.71 46.8994 56.7257C46.915 56.7413 46.9361 56.75 46.9582 56.75H54.2918C54.3139 56.75 54.335 56.7413 54.3506 56.7257C54.3662 56.71 54.375 56.6889 54.375 56.6668V23.0832ZM33.75 42.786C33.75 42.7598 33.7396 42.7348 33.7212 42.7163C33.7027 42.6979 33.6777 42.6875 33.6516 42.6875H26.3484C26.3223 42.6875 26.2973 42.6979 26.2788 42.7163C26.2604 42.7348 26.25 42.7598 26.25 42.786V56.6516C26.25 56.6777 26.2604 56.7027 26.2788 56.7212C26.2973 56.7396 26.3223 56.75 26.3484 56.75H33.6516C33.6777 56.75 33.7027 56.7396 33.7212 56.7212C33.7396 56.7027 33.75 56.6777 33.75 56.6516V42.786ZM13.1074 52.1047C13.1074 52.0935 13.103 52.0828 13.0951 52.0749C13.0872 52.067 13.0764 52.0625 13.0652 52.0625H5.64961C5.63842 52.0625 5.62769 52.067 5.61978 52.0749C5.61187 52.0828 5.60742 52.0935 5.60742 52.1047V56.7078C5.60742 56.719 5.61187 56.7298 5.61978 56.7377C5.62769 56.7456 5.63842 56.75 5.64961 56.75H13.0652C13.0764 56.75 13.0872 56.7456 13.0951 56.7377C13.103 56.7298 13.1074 56.719 13.1074 56.7078V52.1047Z" fill="white"/>
</svg>
