<svg width="60" height="61" viewBox="0 0 60 61" fill="none" xmlns="http://www.w3.org/2000/svg">
<g clip-path="url(#clip0_180_443)">
<path d="M30.9719 2.14062C30.9719 2.67738 30.5368 3.1125 30 3.1125C29.4632 3.1125 29.0281 2.67738 29.0281 2.14062C29.0281 1.60387 29.4632 1.16875 30 1.16875C30.5368 1.16875 30.9719 1.60387 30.9719 2.14062Z" fill="white" stroke="white" stroke-width="0.4"/>
<path d="M16.2941 4.77902L24.3509 12.8078C24.7274 13.183 24.7285 13.7924 24.3533 14.1689L24.3318 14.1905C23.9565 14.567 23.3471 14.5681 22.9706 14.1929L14.9138 6.16415C14.5372 5.78893 14.5362 5.17951 14.9114 4.80297L14.9329 4.78139C15.3081 4.40486 15.9176 4.40379 16.2941 4.77902Z" fill="white" stroke="white" stroke-width="0.4"/>
<path d="M45.0518 4.76732L45.0734 4.78883C45.4495 5.1636 45.4505 5.77228 45.0758 6.14835L37.0454 14.2068C36.6706 14.5829 36.0619 14.584 35.6858 14.2092L35.6643 14.1877C35.2882 13.8129 35.2871 13.2042 35.6619 12.8282L43.6923 4.7697C44.067 4.39362 44.6757 4.39256 45.0518 4.76732Z" fill="white" stroke="white" stroke-width="0.4"/>
<path d="M29.9684 5.89025H30.0316C30.5509 5.89025 30.9719 6.3112 30.9719 6.83048V13.5313C30.9719 14.0505 30.5509 14.4715 30.0316 14.4715H29.9684C29.4491 14.4715 29.0281 14.0505 29.0281 13.5313V6.83048C29.0281 6.3112 29.4491 5.89025 29.9684 5.89025Z" fill="white" stroke="white" stroke-width="0.4"/>
<mask id="path-5-inside-1_180_443" fill="white">
<path d="M60 26.6469V26.9656C59.9289 27.2797 59.8152 27.5043 59.659 27.6394C57.7559 29.2793 55.848 30.9211 53.9355 32.5648C53.884 32.6086 53.8434 32.6613 53.8137 32.723L50.073 40.5582C50.0644 40.5761 50.0604 40.596 50.0614 40.6161C50.0624 40.6361 50.0684 40.6557 50.0789 40.673C51.798 43.5336 49.841 46.9391 46.5656 47.041C46.5203 47.0426 46.4969 47.0656 46.4953 47.1101C46.432 48.6336 45.7945 49.7957 44.5828 50.5965C43.9297 51.0285 43.1863 51.248 42.3527 51.2551C42.3035 51.2551 42.2781 51.2797 42.2766 51.3289C42.2109 52.8641 41.5688 54.0289 40.35 54.8234C39.6992 55.2484 38.9605 55.4652 38.134 55.4738C38.0785 55.4746 38.05 55.5031 38.0484 55.5594C37.9852 58.7492 34.6688 60.7062 31.8492 59.1605C31.4555 58.9437 31.1191 58.6379 30.7805 58.3473C30.7676 58.3364 30.7511 58.331 30.7344 58.3321C30.7178 58.3332 30.7023 58.3407 30.6914 58.3531C30.443 58.6266 30.1828 58.8828 29.9109 59.1219C28.5012 60.3641 26.4281 60.5164 24.8836 59.484C23.8266 58.7777 23.2094 57.7801 23.032 56.491C23.0266 56.4504 23.0035 56.432 22.9629 56.4359C20.366 56.7055 18.2918 54.916 18.2156 52.3016C18.2141 52.257 18.191 52.234 18.1465 52.2324C15.573 52.1469 13.7836 50.0656 14.0566 47.5098C14.0613 47.4637 14.0406 47.4375 13.9945 47.4312C10.6418 46.9414 9.13828 43.0965 11.4129 40.5055C11.4244 40.4927 11.4311 40.4762 11.4318 40.4589C11.4324 40.4416 11.427 40.4245 11.4164 40.4105L6.29883 33.5129C6.25443 33.4529 6.20334 33.3979 6.14648 33.3488C4.28086 31.7433 2.40742 30.1305 0.526172 28.5101C0.241016 28.2648 0.065625 27.9871 0 27.6769V27.3371C0.0742188 27.091 0.139844 26.9328 0.196875 26.8625C3.83125 22.3601 7.46602 17.8578 11.1012 13.3555C11.3902 12.9969 11.6172 12.7781 11.782 12.6992C12.2004 12.4988 12.6316 12.5844 13.0102 12.8258C15.1297 14.1758 17.2273 15.5094 19.3031 16.8266C19.468 16.9312 19.6605 17.0133 19.8809 17.0726C22.0316 17.6555 24.1652 18.2371 26.2816 18.8176C26.3199 18.8283 26.3601 18.8283 26.3977 18.8176L32.9109 16.9426C33.0314 16.9076 33.1565 16.8898 33.2824 16.8898H41.6063C41.6508 16.8898 41.6918 16.8777 41.7293 16.8535C43.7262 15.584 45.8457 14.2367 48.0879 12.8117C48.4957 12.5516 48.8812 12.5074 49.2445 12.6793C49.443 12.7738 49.6957 13.0203 50.0027 13.4187C53.2754 17.6687 56.5473 21.9195 59.8184 26.1711C59.8746 26.2437 59.9352 26.4023 60 26.6469ZM17.2605 18.3805C17.2648 18.3754 17.2678 18.3694 17.2696 18.3631C17.2714 18.3567 17.2717 18.3501 17.2708 18.3435C17.2698 18.337 17.2674 18.3308 17.2638 18.3252C17.2602 18.3197 17.2555 18.3149 17.25 18.3113L12.5766 15.3394C12.5669 15.3335 12.5553 15.3313 12.5441 15.3332C12.5329 15.3352 12.5228 15.3411 12.5156 15.35L2.83711 27.3371C2.82961 27.3465 2.82604 27.3585 2.82713 27.3705C2.82822 27.3825 2.83389 27.3936 2.84297 27.4016L6.91641 30.9066C6.92115 30.9107 6.92665 30.9138 6.9326 30.9157C6.93855 30.9176 6.94482 30.9183 6.95104 30.9178C6.95726 30.9172 6.96331 30.9154 6.96884 30.9125C6.97436 30.9096 6.97924 30.9056 6.9832 30.9008L17.2605 18.3805ZM48.5309 15.3652C48.5241 15.3565 48.5144 15.3507 48.5036 15.3487C48.4928 15.3468 48.4816 15.3489 48.4723 15.3547L43.7918 18.3301C43.7865 18.3334 43.782 18.3379 43.7786 18.3432C43.7751 18.3484 43.7728 18.3543 43.7718 18.3605C43.7708 18.3667 43.7711 18.3731 43.7728 18.3791C43.7744 18.3852 43.7773 18.3908 43.7812 18.3957L53.0391 30.1719C53.0428 30.1766 53.0475 30.1806 53.0528 30.1835C53.0581 30.1864 53.064 30.1881 53.07 30.1887C53.0761 30.1892 53.0821 30.1885 53.0879 30.1867C53.0937 30.1848 53.099 30.1817 53.1035 30.1777L57.1805 26.668C57.1891 26.6605 57.1944 26.65 57.1955 26.6387C57.1966 26.6273 57.1933 26.616 57.1863 26.607L48.5309 15.3652ZM51.5109 32.0867C51.5155 32.0769 51.5173 32.066 51.516 32.0554C51.5148 32.0449 51.5106 32.035 51.5039 32.0269L41.4926 19.2992C41.4684 19.268 41.4359 19.2519 41.3953 19.2512C38.8281 19.2394 36.2844 19.2394 33.7641 19.2512C33.4773 19.2519 33.1996 19.2918 32.9309 19.3707C30.3043 20.1379 27.6344 20.9101 24.9211 21.6875C24.891 21.6965 24.8658 21.7167 24.8508 21.7437C23.3867 24.3226 21.9246 26.9039 20.4645 29.4875C19.9547 30.3875 20.2852 31.4984 21.1852 31.973C22.0488 32.4289 23.1129 32.123 23.5957 31.2746C24.634 29.448 25.7336 27.5086 26.8945 25.4562C27.1277 25.0437 27.5555 24.8141 28.043 24.8469C30.007 24.9836 32.1383 25.1348 34.4367 25.3004C34.7375 25.3223 34.9941 25.4394 35.2066 25.6519C39.5488 29.9926 43.9047 34.3484 48.2742 38.7195C48.3055 38.7516 48.3305 38.7473 48.3492 38.7066L51.5109 32.0867ZM32.1211 51.0348C31.8387 50.3586 32.2734 49.6062 32.9836 49.4586C33.3961 49.3734 33.7664 49.4965 34.0945 49.8277C35.0352 50.7785 35.9395 51.6914 36.8074 52.5664C37.4473 53.2109 38.448 53.3152 39.1781 52.7785C40.118 52.0894 40.1367 50.7922 39.3469 49.993C37.7336 48.3609 36.1121 46.7262 34.4824 45.0887C34.0102 44.6152 33.7523 44.1312 34.0676 43.5043C34.4379 42.7672 35.3988 42.6629 35.9684 43.2359C37.6793 44.9609 39.3266 46.6273 40.9102 48.2351C41.1078 48.4359 41.3109 48.5926 41.5195 48.7051C42.3328 49.1422 43.3535 48.8422 43.8457 48.0828C44.1598 47.5976 44.2191 47.057 44.0238 46.4609C43.948 46.2297 43.6809 45.8832 43.2223 45.4215C40.8285 43.0098 38.4574 40.6211 36.109 38.2555C35.9105 38.0555 35.7777 37.8762 35.7105 37.7176C35.5031 37.2312 35.6754 36.6488 36.1031 36.3301C36.6105 35.9516 37.248 36.05 37.6887 36.4965C40.1754 39.0137 42.6988 41.5625 45.259 44.143C46.2586 45.1508 47.9203 44.6832 48.2941 43.3473C48.4617 42.7449 48.2801 42.0547 47.8383 41.6129C43.2508 37.0254 38.5992 32.3738 33.8836 27.6582C33.8547 27.6293 33.8203 27.6137 33.7805 27.6113L28.6277 27.2457C28.6183 27.245 28.6089 27.247 28.6006 27.2513C28.5923 27.2557 28.5855 27.2623 28.5809 27.2703C27.7402 28.7187 26.9039 30.1949 26.0719 31.6988C25.6586 32.4465 25.3012 32.9769 24.9996 33.2902C24.0047 34.3262 22.493 34.7574 21.0902 34.434C18.8039 33.9055 17.427 31.6016 17.9977 29.3445C18.0922 28.9711 18.3438 28.4273 18.7523 27.7133C20.0828 25.3883 21.4676 22.9484 22.9066 20.3937C22.9262 20.3594 22.9168 20.3367 22.8785 20.3258L19.5281 19.4105C19.5115 19.4056 19.4938 19.4058 19.4774 19.411C19.4609 19.4162 19.4463 19.4263 19.4355 19.4398L8.62148 32.6129C8.60039 32.6387 8.6 32.6652 8.62031 32.6926L13.1121 38.7441C13.1156 38.7492 13.1201 38.7535 13.1255 38.7566C13.1308 38.7598 13.1367 38.7618 13.1429 38.7624C13.1491 38.7631 13.1555 38.7624 13.1615 38.7605C13.1675 38.7586 13.173 38.7554 13.1777 38.7512C15.6129 36.5926 19.452 37.9695 19.9945 41.1629C20.0039 41.2168 20.0359 41.2387 20.0906 41.2285C22.7238 40.7105 25.0758 42.6113 25.0863 45.2949C25.0863 45.3418 25.1098 45.3664 25.1566 45.3687C26.7066 45.4344 27.8777 46.0871 28.6699 47.3269C29.2348 48.2105 29.4059 49.3519 29.1961 50.4055C29.1945 50.413 29.1945 50.4208 29.196 50.4284C29.1975 50.4359 29.2004 50.4431 29.2047 50.4495C29.209 50.4558 29.2144 50.4612 29.2208 50.4653C29.2272 50.4694 29.2343 50.4722 29.2418 50.4734C32.0473 50.9656 33.518 53.873 32.291 56.4394C32.2814 56.4595 32.2785 56.4821 32.2827 56.504C32.2869 56.5259 32.2981 56.546 32.3145 56.5613C32.8758 57.0957 33.4137 57.4601 34.2469 57.3055C35.7082 57.0336 36.1441 55.2652 35.1492 54.2469C34.2891 53.3664 33.427 52.493 32.5629 51.6266C32.341 51.4039 32.1938 51.2066 32.1211 51.0348ZM17.2418 43.0674C17.3992 42.9073 17.5235 42.7177 17.6076 42.5095C17.6917 42.3013 17.734 42.0786 17.732 41.8541C17.7301 41.6296 17.6839 41.4077 17.5962 41.201C17.5084 40.9943 17.3809 40.8069 17.2207 40.6495L17.102 40.5329C16.9419 40.3755 16.7523 40.2512 16.5441 40.1671C16.3359 40.083 16.1132 40.0407 15.8887 40.0427C15.6642 40.0447 15.4423 40.0908 15.2356 40.1786C15.0289 40.2663 14.8415 40.3939 14.6841 40.554L13.1613 42.1037C13.0039 42.2638 12.8796 42.4534 12.7955 42.6616C12.7114 42.8697 12.6691 43.0924 12.6711 43.317C12.6731 43.5415 12.7192 43.7634 12.807 43.9701C12.8947 44.1768 13.0223 44.3642 13.1824 44.5215L13.3011 44.6382C13.4612 44.7955 13.6508 44.9198 13.859 45.0039C14.0672 45.0881 14.2899 45.1303 14.5144 45.1284C14.7389 45.1264 14.9609 45.0803 15.1675 44.9925C15.3742 44.9048 15.5616 44.7772 15.719 44.6171L17.2418 43.0674ZM22.2612 46.5281C22.5867 46.2027 22.7695 45.7612 22.7695 45.3009C22.7695 44.8406 22.5867 44.3992 22.2612 44.0737L22.1767 43.9892C21.8512 43.6637 21.4097 43.4809 20.9495 43.4809C20.4892 43.4809 20.0477 43.6637 19.7222 43.9892L16.8701 46.8414C16.5446 47.1668 16.3617 47.6083 16.3617 48.0686C16.3617 48.5289 16.5446 48.9703 16.8701 49.2958L16.9546 49.3803C17.2801 49.7058 17.7215 49.8887 18.1818 49.8887C18.6421 49.8887 19.0835 49.7058 19.409 49.3803L22.2612 46.5281ZM26.4604 50.7584C26.7841 50.4312 26.9647 49.9888 26.9623 49.5285C26.9598 49.0682 26.7747 48.6277 26.4475 48.304L26.3592 48.2166C26.032 47.8928 25.5896 47.7123 25.1293 47.7147C24.6691 47.7171 24.2286 47.9023 23.9048 48.2294L21.0709 51.0932C20.7471 51.4204 20.5666 51.8628 20.569 52.323C20.5714 52.7833 20.7566 53.2238 21.0837 53.5476L21.172 53.635C21.4992 53.9587 21.9416 54.1393 22.4019 54.1369C22.8622 54.1344 23.3027 53.9493 23.6264 53.6221L26.4604 50.7584ZM27.1266 57.8082C27.6359 57.8223 28.084 57.6387 28.4707 57.2574C28.916 56.8176 29.3605 56.3711 29.8043 55.918C30.6809 55.0226 30.552 53.6223 29.4492 52.9918C28.7543 52.5945 27.8695 52.7586 27.2977 53.3258C26.8453 53.7734 26.3789 54.2406 25.8984 54.7273C24.7781 55.8605 25.5176 57.7648 27.1266 57.8082Z"/>
</mask>
<path d="M60 26.6469V26.9656C59.9289 27.2797 59.8152 27.5043 59.659 27.6394C57.7559 29.2793 55.848 30.9211 53.9355 32.5648C53.884 32.6086 53.8434 32.6613 53.8137 32.723L50.073 40.5582C50.0644 40.5761 50.0604 40.596 50.0614 40.6161C50.0624 40.6361 50.0684 40.6557 50.0789 40.673C51.798 43.5336 49.841 46.9391 46.5656 47.041C46.5203 47.0426 46.4969 47.0656 46.4953 47.1101C46.432 48.6336 45.7945 49.7957 44.5828 50.5965C43.9297 51.0285 43.1863 51.248 42.3527 51.2551C42.3035 51.2551 42.2781 51.2797 42.2766 51.3289C42.2109 52.8641 41.5688 54.0289 40.35 54.8234C39.6992 55.2484 38.9605 55.4652 38.134 55.4738C38.0785 55.4746 38.05 55.5031 38.0484 55.5594C37.9852 58.7492 34.6688 60.7062 31.8492 59.1605C31.4555 58.9437 31.1191 58.6379 30.7805 58.3473C30.7676 58.3364 30.7511 58.331 30.7344 58.3321C30.7178 58.3332 30.7023 58.3407 30.6914 58.3531C30.443 58.6266 30.1828 58.8828 29.9109 59.1219C28.5012 60.3641 26.4281 60.5164 24.8836 59.484C23.8266 58.7777 23.2094 57.7801 23.032 56.491C23.0266 56.4504 23.0035 56.432 22.9629 56.4359C20.366 56.7055 18.2918 54.916 18.2156 52.3016C18.2141 52.257 18.191 52.234 18.1465 52.2324C15.573 52.1469 13.7836 50.0656 14.0566 47.5098C14.0613 47.4637 14.0406 47.4375 13.9945 47.4312C10.6418 46.9414 9.13828 43.0965 11.4129 40.5055C11.4244 40.4927 11.4311 40.4762 11.4318 40.4589C11.4324 40.4416 11.427 40.4245 11.4164 40.4105L6.29883 33.5129C6.25443 33.4529 6.20334 33.3979 6.14648 33.3488C4.28086 31.7433 2.40742 30.1305 0.526172 28.5101C0.241016 28.2648 0.065625 27.9871 0 27.6769V27.3371C0.0742188 27.091 0.139844 26.9328 0.196875 26.8625C3.83125 22.3601 7.46602 17.8578 11.1012 13.3555C11.3902 12.9969 11.6172 12.7781 11.782 12.6992C12.2004 12.4988 12.6316 12.5844 13.0102 12.8258C15.1297 14.1758 17.2273 15.5094 19.3031 16.8266C19.468 16.9312 19.6605 17.0133 19.8809 17.0726C22.0316 17.6555 24.1652 18.2371 26.2816 18.8176C26.3199 18.8283 26.3601 18.8283 26.3977 18.8176L32.9109 16.9426C33.0314 16.9076 33.1565 16.8898 33.2824 16.8898H41.6063C41.6508 16.8898 41.6918 16.8777 41.7293 16.8535C43.7262 15.584 45.8457 14.2367 48.0879 12.8117C48.4957 12.5516 48.8812 12.5074 49.2445 12.6793C49.443 12.7738 49.6957 13.0203 50.0027 13.4187C53.2754 17.6687 56.5473 21.9195 59.8184 26.1711C59.8746 26.2437 59.9352 26.4023 60 26.6469ZM17.2605 18.3805C17.2648 18.3754 17.2678 18.3694 17.2696 18.3631C17.2714 18.3567 17.2717 18.3501 17.2708 18.3435C17.2698 18.337 17.2674 18.3308 17.2638 18.3252C17.2602 18.3197 17.2555 18.3149 17.25 18.3113L12.5766 15.3394C12.5669 15.3335 12.5553 15.3313 12.5441 15.3332C12.5329 15.3352 12.5228 15.3411 12.5156 15.35L2.83711 27.3371C2.82961 27.3465 2.82604 27.3585 2.82713 27.3705C2.82822 27.3825 2.83389 27.3936 2.84297 27.4016L6.91641 30.9066C6.92115 30.9107 6.92665 30.9138 6.9326 30.9157C6.93855 30.9176 6.94482 30.9183 6.95104 30.9178C6.95726 30.9172 6.96331 30.9154 6.96884 30.9125C6.97436 30.9096 6.97924 30.9056 6.9832 30.9008L17.2605 18.3805ZM48.5309 15.3652C48.5241 15.3565 48.5144 15.3507 48.5036 15.3487C48.4928 15.3468 48.4816 15.3489 48.4723 15.3547L43.7918 18.3301C43.7865 18.3334 43.782 18.3379 43.7786 18.3432C43.7751 18.3484 43.7728 18.3543 43.7718 18.3605C43.7708 18.3667 43.7711 18.3731 43.7728 18.3791C43.7744 18.3852 43.7773 18.3908 43.7812 18.3957L53.0391 30.1719C53.0428 30.1766 53.0475 30.1806 53.0528 30.1835C53.0581 30.1864 53.064 30.1881 53.07 30.1887C53.0761 30.1892 53.0821 30.1885 53.0879 30.1867C53.0937 30.1848 53.099 30.1817 53.1035 30.1777L57.1805 26.668C57.1891 26.6605 57.1944 26.65 57.1955 26.6387C57.1966 26.6273 57.1933 26.616 57.1863 26.607L48.5309 15.3652ZM51.5109 32.0867C51.5155 32.0769 51.5173 32.066 51.516 32.0554C51.5148 32.0449 51.5106 32.035 51.5039 32.0269L41.4926 19.2992C41.4684 19.268 41.4359 19.2519 41.3953 19.2512C38.8281 19.2394 36.2844 19.2394 33.7641 19.2512C33.4773 19.2519 33.1996 19.2918 32.9309 19.3707C30.3043 20.1379 27.6344 20.9101 24.9211 21.6875C24.891 21.6965 24.8658 21.7167 24.8508 21.7437C23.3867 24.3226 21.9246 26.9039 20.4645 29.4875C19.9547 30.3875 20.2852 31.4984 21.1852 31.973C22.0488 32.4289 23.1129 32.123 23.5957 31.2746C24.634 29.448 25.7336 27.5086 26.8945 25.4562C27.1277 25.0437 27.5555 24.8141 28.043 24.8469C30.007 24.9836 32.1383 25.1348 34.4367 25.3004C34.7375 25.3223 34.9941 25.4394 35.2066 25.6519C39.5488 29.9926 43.9047 34.3484 48.2742 38.7195C48.3055 38.7516 48.3305 38.7473 48.3492 38.7066L51.5109 32.0867ZM32.1211 51.0348C31.8387 50.3586 32.2734 49.6062 32.9836 49.4586C33.3961 49.3734 33.7664 49.4965 34.0945 49.8277C35.0352 50.7785 35.9395 51.6914 36.8074 52.5664C37.4473 53.2109 38.448 53.3152 39.1781 52.7785C40.118 52.0894 40.1367 50.7922 39.3469 49.993C37.7336 48.3609 36.1121 46.7262 34.4824 45.0887C34.0102 44.6152 33.7523 44.1312 34.0676 43.5043C34.4379 42.7672 35.3988 42.6629 35.9684 43.2359C37.6793 44.9609 39.3266 46.6273 40.9102 48.2351C41.1078 48.4359 41.3109 48.5926 41.5195 48.7051C42.3328 49.1422 43.3535 48.8422 43.8457 48.0828C44.1598 47.5976 44.2191 47.057 44.0238 46.4609C43.948 46.2297 43.6809 45.8832 43.2223 45.4215C40.8285 43.0098 38.4574 40.6211 36.109 38.2555C35.9105 38.0555 35.7777 37.8762 35.7105 37.7176C35.5031 37.2312 35.6754 36.6488 36.1031 36.3301C36.6105 35.9516 37.248 36.05 37.6887 36.4965C40.1754 39.0137 42.6988 41.5625 45.259 44.143C46.2586 45.1508 47.9203 44.6832 48.2941 43.3473C48.4617 42.7449 48.2801 42.0547 47.8383 41.6129C43.2508 37.0254 38.5992 32.3738 33.8836 27.6582C33.8547 27.6293 33.8203 27.6137 33.7805 27.6113L28.6277 27.2457C28.6183 27.245 28.6089 27.247 28.6006 27.2513C28.5923 27.2557 28.5855 27.2623 28.5809 27.2703C27.7402 28.7187 26.9039 30.1949 26.0719 31.6988C25.6586 32.4465 25.3012 32.9769 24.9996 33.2902C24.0047 34.3262 22.493 34.7574 21.0902 34.434C18.8039 33.9055 17.427 31.6016 17.9977 29.3445C18.0922 28.9711 18.3438 28.4273 18.7523 27.7133C20.0828 25.3883 21.4676 22.9484 22.9066 20.3937C22.9262 20.3594 22.9168 20.3367 22.8785 20.3258L19.5281 19.4105C19.5115 19.4056 19.4938 19.4058 19.4774 19.411C19.4609 19.4162 19.4463 19.4263 19.4355 19.4398L8.62148 32.6129C8.60039 32.6387 8.6 32.6652 8.62031 32.6926L13.1121 38.7441C13.1156 38.7492 13.1201 38.7535 13.1255 38.7566C13.1308 38.7598 13.1367 38.7618 13.1429 38.7624C13.1491 38.7631 13.1555 38.7624 13.1615 38.7605C13.1675 38.7586 13.173 38.7554 13.1777 38.7512C15.6129 36.5926 19.452 37.9695 19.9945 41.1629C20.0039 41.2168 20.0359 41.2387 20.0906 41.2285C22.7238 40.7105 25.0758 42.6113 25.0863 45.2949C25.0863 45.3418 25.1098 45.3664 25.1566 45.3687C26.7066 45.4344 27.8777 46.0871 28.6699 47.3269C29.2348 48.2105 29.4059 49.3519 29.1961 50.4055C29.1945 50.413 29.1945 50.4208 29.196 50.4284C29.1975 50.4359 29.2004 50.4431 29.2047 50.4495C29.209 50.4558 29.2144 50.4612 29.2208 50.4653C29.2272 50.4694 29.2343 50.4722 29.2418 50.4734C32.0473 50.9656 33.518 53.873 32.291 56.4394C32.2814 56.4595 32.2785 56.4821 32.2827 56.504C32.2869 56.5259 32.2981 56.546 32.3145 56.5613C32.8758 57.0957 33.4137 57.4601 34.2469 57.3055C35.7082 57.0336 36.1441 55.2652 35.1492 54.2469C34.2891 53.3664 33.427 52.493 32.5629 51.6266C32.341 51.4039 32.1938 51.2066 32.1211 51.0348ZM17.2418 43.0674C17.3992 42.9073 17.5235 42.7177 17.6076 42.5095C17.6917 42.3013 17.734 42.0786 17.732 41.8541C17.7301 41.6296 17.6839 41.4077 17.5962 41.201C17.5084 40.9943 17.3809 40.8069 17.2207 40.6495L17.102 40.5329C16.9419 40.3755 16.7523 40.2512 16.5441 40.1671C16.3359 40.083 16.1132 40.0407 15.8887 40.0427C15.6642 40.0447 15.4423 40.0908 15.2356 40.1786C15.0289 40.2663 14.8415 40.3939 14.6841 40.554L13.1613 42.1037C13.0039 42.2638 12.8796 42.4534 12.7955 42.6616C12.7114 42.8697 12.6691 43.0924 12.6711 43.317C12.6731 43.5415 12.7192 43.7634 12.807 43.9701C12.8947 44.1768 13.0223 44.3642 13.1824 44.5215L13.3011 44.6382C13.4612 44.7955 13.6508 44.9198 13.859 45.0039C14.0672 45.0881 14.2899 45.1303 14.5144 45.1284C14.7389 45.1264 14.9609 45.0803 15.1675 44.9925C15.3742 44.9048 15.5616 44.7772 15.719 44.6171L17.2418 43.0674ZM22.2612 46.5281C22.5867 46.2027 22.7695 45.7612 22.7695 45.3009C22.7695 44.8406 22.5867 44.3992 22.2612 44.0737L22.1767 43.9892C21.8512 43.6637 21.4097 43.4809 20.9495 43.4809C20.4892 43.4809 20.0477 43.6637 19.7222 43.9892L16.8701 46.8414C16.5446 47.1668 16.3617 47.6083 16.3617 48.0686C16.3617 48.5289 16.5446 48.9703 16.8701 49.2958L16.9546 49.3803C17.2801 49.7058 17.7215 49.8887 18.1818 49.8887C18.6421 49.8887 19.0835 49.7058 19.409 49.3803L22.2612 46.5281ZM26.4604 50.7584C26.7841 50.4312 26.9647 49.9888 26.9623 49.5285C26.9598 49.0682 26.7747 48.6277 26.4475 48.304L26.3592 48.2166C26.032 47.8928 25.5896 47.7123 25.1293 47.7147C24.6691 47.7171 24.2286 47.9023 23.9048 48.2294L21.0709 51.0932C20.7471 51.4204 20.5666 51.8628 20.569 52.323C20.5714 52.7833 20.7566 53.2238 21.0837 53.5476L21.172 53.635C21.4992 53.9587 21.9416 54.1393 22.4019 54.1369C22.8622 54.1344 23.3027 53.9493 23.6264 53.6221L26.4604 50.7584ZM27.1266 57.8082C27.6359 57.8223 28.084 57.6387 28.4707 57.2574C28.916 56.8176 29.3605 56.3711 29.8043 55.918C30.6809 55.0226 30.552 53.6223 29.4492 52.9918C28.7543 52.5945 27.8695 52.7586 27.2977 53.3258C26.8453 53.7734 26.3789 54.2406 25.8984 54.7273C24.7781 55.8605 25.5176 57.7648 27.1266 57.8082Z" fill="white" stroke="#82B492" stroke-width="0.6" mask="url(#path-5-inside-1_180_443)"/>
</g>
<defs>
<clipPath id="clip0_180_443">
<rect width="60" height="60" fill="white" transform="translate(0 0.5)"/>
</clipPath>
</defs>
</svg>
