<svg width="60" height="61" viewBox="0 0 60 61" fill="none" xmlns="http://www.w3.org/2000/svg">
<g clip-path="url(#clip0_180_463)">
<mask id="path-1-inside-1_180_463" fill="white">
<path d="M26.3934 56.0588C26.3967 56.289 26.3987 56.522 26.3995 56.7579C26.4092 58.8033 24.7831 60.4875 22.7377 60.4815C21.7781 60.4791 20.8309 60.4847 19.8963 60.4984C19.0505 60.5106 18.418 60.452 17.9988 60.3227C16.5617 59.8793 15.5196 58.6021 15.4154 57.102C15.3928 56.7757 15.3899 56.4283 15.4069 56.06C15.4101 55.9986 15.3811 55.9687 15.3197 55.9703C14.9085 55.9824 14.4997 55.9844 14.0934 55.9764C13.3365 55.9618 12.9964 55.585 13.0732 54.8458C13.135 54.2497 13.679 54.0703 14.2158 54.0885C14.606 54.1023 14.9768 54.1039 15.3282 54.0934C15.3766 54.0918 15.4009 54.0667 15.4009 54.0182V51.4409C15.4009 51.3941 15.3778 51.3707 15.3318 51.3707C14.066 51.3755 12.8538 51.3755 11.6955 51.3707C11.0347 51.3674 10.7043 51.0241 10.7043 50.3407C10.7035 47.3769 10.7023 44.5661 10.7006 41.9085C10.6994 41.3414 11.0351 40.9451 11.6385 40.9379C12.4851 40.929 13.3458 40.9282 14.2207 40.9355C14.2274 40.9355 14.2341 40.9341 14.2403 40.9314C14.2464 40.9286 14.2519 40.9246 14.2564 40.9195C14.2609 40.9145 14.2642 40.9085 14.2662 40.9021C14.2682 40.8956 14.2688 40.8888 14.2679 40.8821C13.9286 38.5339 13.1289 36.1444 11.8287 34.2493C11.4059 33.6313 10.8848 33.0909 10.2729 32.6462C6.87529 30.1755 4.51731 26.5367 3.51523 22.5066C1.61406 14.8608 5.09893 6.78352 11.9124 2.85638C16.409 0.264542 21.9307 -0.215293 26.7957 1.54653C32.3005 3.53978 36.55 8.05945 38.021 13.7545C38.2536 14.6523 38.3821 15.5648 38.5202 16.4796C38.6018 17.02 38.6313 17.6218 38.6087 18.285C38.607 18.3287 38.6264 18.3585 38.6668 18.3747L39.0267 18.5274C39.0711 18.546 39.1079 18.5363 39.137 18.4983L44.7738 11.1057C44.7989 11.0734 44.8013 11.039 44.7811 11.0027C43.9838 9.55348 44.0888 8.1996 45.0961 6.94104C46.8325 4.7733 50.3271 5.58999 51.0686 8.21091C51.3619 9.24813 51.2007 10.2159 50.5852 11.1142C49.8024 12.2556 48.3641 12.8869 47.0058 12.5355C46.7699 12.4749 46.5393 12.3941 46.3139 12.2931C46.2622 12.2705 46.219 12.2818 46.1842 12.3271L40.5571 19.7064C40.5296 19.7427 40.5248 19.7819 40.5425 19.8239L40.8673 20.5752C40.8834 20.6131 40.9121 20.6321 40.9533 20.6321H50.115C50.1619 20.6321 50.193 20.6099 50.2083 20.5655C50.5032 19.6938 50.979 19.0496 51.6357 18.6328C52.9807 17.781 54.7789 17.8452 55.97 18.92C57.3416 20.1559 57.6046 22.2085 56.3262 23.602C55.2066 24.8222 53.6229 25.2378 52.0974 24.4768C51.2189 24.037 50.7609 23.2979 50.3852 22.383C50.3691 22.3434 50.34 22.3236 50.298 22.3236H41.1242C41.0741 22.3236 41.0438 22.3479 41.0333 22.3963C40.9727 22.6807 40.8693 22.9485 40.7231 23.1997C40.698 23.2425 40.7005 23.2833 40.7304 23.3221L46.2775 30.625C46.3123 30.6711 46.3551 30.6812 46.406 30.6553C47.3257 30.1949 48.2865 30.0652 49.2608 30.4639C50.8469 31.1134 51.8017 32.7807 51.397 34.4722C51.0686 35.8439 49.8993 36.9405 48.4732 37.1392C45.7371 37.5209 43.6166 34.5401 44.9689 32.0985C45.0004 32.0419 44.9964 31.9878 44.9568 31.9361L39.3066 24.6186C39.296 24.6048 39.2811 24.595 39.2643 24.5908C39.2476 24.5866 39.23 24.5883 39.2145 24.5956C38.6692 24.846 38.1179 24.9664 37.5605 24.9567C37.5056 24.9559 37.468 24.9809 37.4478 25.0318C36.3743 27.6709 34.73 29.9392 32.515 31.8368C31.9988 32.279 31.382 32.6716 30.8877 33.1636C29.9607 34.0881 29.2458 35.3446 28.6884 36.6896C28.106 38.0952 27.7215 39.4875 27.5349 40.8664C27.5337 40.8749 27.5343 40.8835 27.5367 40.8917C27.5391 40.8999 27.5433 40.9075 27.549 40.914C27.5546 40.9204 27.5616 40.9256 27.5694 40.9291C27.5772 40.9326 27.5857 40.9343 27.5942 40.9342C28.3294 40.9318 29.1642 40.931 30.0988 40.9318C30.8477 40.933 31.1143 41.3983 31.1082 42.0902C31.0832 44.8319 31.0828 47.5619 31.107 50.2801C31.113 50.9066 30.8053 51.3694 30.1485 51.3707C28.8795 51.3739 27.6516 51.3743 26.4649 51.3719C26.4205 51.3719 26.3983 51.3941 26.3983 51.4385V54.0158C26.3983 54.0667 26.4237 54.093 26.4746 54.0946C26.8317 54.1067 27.1835 54.1051 27.53 54.0897C27.8847 54.0736 28.1537 54.1245 28.337 54.2424C28.9126 54.6132 28.898 55.6237 28.2013 55.8915C28.0268 55.9594 27.82 55.9905 27.5809 55.9848C27.1899 55.9751 26.8204 55.9731 26.4722 55.9788C26.4197 55.9796 26.3934 56.0062 26.3934 56.0588ZM23.6744 24.7725C24.0355 24.7713 24.3638 25.0488 24.4681 25.3881C24.6728 26.063 24.2633 26.6458 23.5302 26.6458C22.9801 26.6466 22.4251 26.6466 21.8653 26.6458C21.8168 26.6458 21.7926 26.6696 21.7926 26.7173V40.9633C21.7926 41.0094 21.816 41.0324 21.8629 41.0324H25.4835C25.5009 41.0325 25.5177 41.0262 25.5309 41.0146C25.544 41.003 25.5526 40.9869 25.5549 40.9694C25.9621 37.8202 27.1689 34.4565 29.2846 32.1239C29.7196 31.6441 30.2261 31.2757 30.7507 30.8831C32.8797 29.2922 34.5131 26.9996 35.5758 24.4514C35.5943 24.4062 35.5838 24.3686 35.5443 24.3387C34.6355 23.6561 34.156 22.7518 34.106 21.6257C34.1052 21.6091 34.0995 21.5931 34.0895 21.5801C34.0795 21.567 34.0657 21.5576 34.0502 21.553L23.8222 18.4862C23.8054 18.4809 23.7873 18.4812 23.7707 18.4871C23.7541 18.493 23.7398 18.5042 23.7301 18.5189C23.3294 19.1062 22.8246 19.5367 22.2155 19.8106C19.9835 20.8163 17.405 19.2326 17.319 16.7825C17.2523 14.8717 18.7415 13.1947 20.656 13.1535C22.6553 13.1098 24.2148 14.5663 24.2378 16.6201C24.2386 16.663 24.2596 16.6904 24.3008 16.7025L34.5082 19.7645C34.5559 19.7791 34.5935 19.7649 34.6209 19.7221C35.1298 18.9345 35.806 18.4296 36.6493 18.2075C36.7059 18.1929 36.735 18.1562 36.7366 18.0972C36.8359 13.4443 34.5167 8.89189 30.9301 5.97046C27.959 3.55109 24.5157 2.3515 20.6003 2.3717C14.9453 2.40199 9.95545 5.48094 7.1249 10.2696C3.09235 17.0915 4.62152 25.7588 10.7939 30.768C11.3429 31.2139 11.9536 31.6053 12.4394 32.1082C12.975 32.6631 13.4363 33.2714 13.8232 33.933C14.9889 35.9275 15.764 38.2745 16.1485 40.9742C16.1508 40.9903 16.1589 41.005 16.1714 41.0157C16.1838 41.0264 16.1998 41.0323 16.2163 41.0324H19.8309C19.8858 41.0324 19.9132 41.0045 19.9132 40.9488V26.7185C19.9132 26.6708 19.8898 26.647 19.843 26.647C19.292 26.6462 18.7246 26.6458 18.1405 26.6458C16.8658 26.6458 16.8367 24.7616 18.1902 24.7677C20.137 24.7765 21.9651 24.7782 23.6744 24.7725ZM49.5043 9.15725C49.5043 8.73659 49.3372 8.33315 49.0397 8.03569C48.7423 7.73824 48.3389 7.57113 47.9182 7.57113C47.4975 7.57113 47.0941 7.73824 46.7966 8.03569C46.4992 8.33315 46.3321 8.73659 46.3321 9.15725C46.3321 9.57792 46.4992 9.98135 46.7966 10.2788C47.0941 10.5763 47.4975 10.7434 47.9182 10.7434C48.3389 10.7434 48.7423 10.5763 49.0397 10.2788C49.3372 9.98135 49.5043 9.57792 49.5043 9.15725ZM21.6394 18.1072C22.0125 17.9244 22.2957 17.5965 22.4265 17.1957C22.5573 16.7948 22.525 16.3538 22.3368 15.9697C22.2437 15.7795 22.115 15.609 21.9582 15.4679C21.8014 15.3268 21.6196 15.2179 21.423 15.1474C21.2265 15.0769 21.0191 15.0462 20.8128 15.0571C20.6064 15.0679 20.4051 15.1201 20.2203 15.2106C19.8472 15.3934 19.5641 15.7213 19.4333 16.1222C19.3025 16.5231 19.3347 16.9641 19.5229 17.3482C19.6161 17.5384 19.7447 17.7089 19.9015 17.85C20.0583 17.991 20.2402 18.0999 20.4367 18.1704C20.6332 18.2409 20.8406 18.2716 21.047 18.2608C21.2533 18.2499 21.4546 18.1978 21.6394 18.1072ZM39.2593 21.57C39.2593 21.1503 39.0926 20.7478 38.7958 20.451C38.4991 20.1542 38.0966 19.9875 37.6769 19.9875C37.2572 19.9875 36.8546 20.1542 36.5579 20.451C36.2611 20.7478 36.0944 21.1503 36.0944 21.57C36.0944 21.9897 36.2611 22.3922 36.5579 22.689C36.8546 22.9857 37.2572 23.1525 37.6769 23.1525C38.0966 23.1525 38.4991 22.9857 38.7958 22.689C39.0926 22.3922 39.2593 21.9897 39.2593 21.57ZM55.2701 21.5126C55.264 21.3065 55.2164 21.1036 55.1301 20.9156C55.0438 20.7275 54.9205 20.558 54.7671 20.4167C54.6138 20.2753 54.4334 20.165 54.2364 20.0918C54.0394 20.0187 53.8295 19.9843 53.6187 19.9906C53.408 19.9968 53.2005 20.0436 53.0081 20.1283C52.8158 20.213 52.6423 20.3338 52.4976 20.484C52.3529 20.6342 52.2398 20.8108 52.1648 21.0036C52.0898 21.1964 52.0544 21.4018 52.0605 21.6079C52.0666 21.814 52.1142 22.0169 52.2005 22.205C52.2868 22.393 52.4101 22.5626 52.5635 22.7039C52.7168 22.8452 52.8972 22.9556 53.0942 23.0287C53.2913 23.1018 53.5012 23.1362 53.7119 23.13C53.9226 23.1237 54.1301 23.0769 54.3225 22.9922C54.5149 22.9076 54.6883 22.7867 54.833 22.6365C54.9777 22.4863 55.0908 22.3098 55.1658 22.117C55.2408 21.9241 55.2762 21.7188 55.2701 21.5126ZM49.5055 33.8845C49.5055 33.4648 49.3388 33.0623 49.042 32.7655C48.7453 32.4688 48.3427 32.302 47.923 32.302C47.5033 32.302 47.1008 32.4688 46.8041 32.7655C46.5073 33.0623 46.3405 33.4648 46.3405 33.8845C46.3405 34.3042 46.5073 34.7067 46.8041 35.0035C47.1008 35.3003 47.5033 35.467 47.923 35.467C48.3427 35.467 48.7453 35.3003 49.042 35.0035C49.3388 34.7067 49.5055 34.3042 49.5055 33.8845ZM29.2167 43.039C29.2167 43.03 29.2132 43.0213 29.2068 43.015C29.2004 43.0086 29.1918 43.005 29.1828 43.005H12.5218C12.5128 43.005 12.5042 43.0086 12.4979 43.015C12.4915 43.0213 12.4879 43.03 12.4879 43.039V45.317C12.4879 45.326 12.4915 45.3346 12.4979 45.341C12.5042 45.3473 12.5128 45.3509 12.5218 45.3509H29.1828C29.1918 45.3509 29.2004 45.3473 29.2068 45.341C29.2132 45.3346 29.2167 45.326 29.2167 45.317V43.039ZM29.2167 47.2763C29.2167 47.2647 29.2121 47.2536 29.2039 47.2455C29.1958 47.2373 29.1847 47.2327 29.1731 47.2327H12.5315C12.52 47.2327 12.5089 47.2373 12.5007 47.2455C12.4925 47.2536 12.4879 47.2647 12.4879 47.2763V49.5446C12.4879 49.5504 12.489 49.556 12.4912 49.5613C12.4934 49.5666 12.4966 49.5714 12.5007 49.5755C12.5047 49.5795 12.5095 49.5827 12.5148 49.5849C12.5201 49.5871 12.5258 49.5882 12.5315 49.5882H29.1731C29.1788 49.5882 29.1845 49.5871 29.1898 49.5849C29.1951 49.5827 29.1999 49.5795 29.2039 49.5755C29.208 49.5714 29.2112 49.5666 29.2134 49.5613C29.2156 49.556 29.2167 49.5504 29.2167 49.5446V47.2763ZM24.5444 57.0354C24.5557 57.0322 24.5654 57.0265 24.5735 57.0184C24.5985 56.9942 24.611 56.9639 24.611 56.9275C24.6118 55.1455 24.6118 53.3671 24.611 51.5924C24.611 51.5831 24.6073 51.5741 24.6007 51.5676C24.5941 51.561 24.5852 51.5573 24.5759 51.5573H17.3469C17.296 51.5573 17.2709 51.5827 17.2717 51.6336C17.2887 53.2872 17.2887 54.9585 17.2717 56.6476C17.2632 57.5479 17.5226 58.2616 18.3332 58.6348C18.6159 58.7657 19.0715 58.8227 19.7 58.8057C20.4803 58.7839 21.2732 58.7835 22.0786 58.8045C22.6998 58.8206 23.1412 58.7714 23.403 58.6567C24.0823 58.357 24.4559 57.8246 24.5238 57.0596C24.5254 57.0467 24.5323 57.0386 24.5444 57.0354Z"/>
</mask>
<path d="M26.3934 56.0588C26.3967 56.289 26.3987 56.522 26.3995 56.7579C26.4092 58.8033 24.7831 60.4875 22.7377 60.4815C21.7781 60.4791 20.8309 60.4847 19.8963 60.4984C19.0505 60.5106 18.418 60.452 17.9988 60.3227C16.5617 59.8793 15.5196 58.6021 15.4154 57.102C15.3928 56.7757 15.3899 56.4283 15.4069 56.06C15.4101 55.9986 15.3811 55.9687 15.3197 55.9703C14.9085 55.9824 14.4997 55.9844 14.0934 55.9764C13.3365 55.9618 12.9964 55.585 13.0732 54.8458C13.135 54.2497 13.679 54.0703 14.2158 54.0885C14.606 54.1023 14.9768 54.1039 15.3282 54.0934C15.3766 54.0918 15.4009 54.0667 15.4009 54.0182V51.4409C15.4009 51.3941 15.3778 51.3707 15.3318 51.3707C14.066 51.3755 12.8538 51.3755 11.6955 51.3707C11.0347 51.3674 10.7043 51.0241 10.7043 50.3407C10.7035 47.3769 10.7023 44.5661 10.7006 41.9085C10.6994 41.3414 11.0351 40.9451 11.6385 40.9379C12.4851 40.929 13.3458 40.9282 14.2207 40.9355C14.2274 40.9355 14.2341 40.9341 14.2403 40.9314C14.2464 40.9286 14.2519 40.9246 14.2564 40.9195C14.2609 40.9145 14.2642 40.9085 14.2662 40.9021C14.2682 40.8956 14.2688 40.8888 14.2679 40.8821C13.9286 38.5339 13.1289 36.1444 11.8287 34.2493C11.4059 33.6313 10.8848 33.0909 10.2729 32.6462C6.87529 30.1755 4.51731 26.5367 3.51523 22.5066C1.61406 14.8608 5.09893 6.78352 11.9124 2.85638C16.409 0.264542 21.9307 -0.215293 26.7957 1.54653C32.3005 3.53978 36.55 8.05945 38.021 13.7545C38.2536 14.6523 38.3821 15.5648 38.5202 16.4796C38.6018 17.02 38.6313 17.6218 38.6087 18.285C38.607 18.3287 38.6264 18.3585 38.6668 18.3747L39.0267 18.5274C39.0711 18.546 39.1079 18.5363 39.137 18.4983L44.7738 11.1057C44.7989 11.0734 44.8013 11.039 44.7811 11.0027C43.9838 9.55348 44.0888 8.1996 45.0961 6.94104C46.8325 4.7733 50.3271 5.58999 51.0686 8.21091C51.3619 9.24813 51.2007 10.2159 50.5852 11.1142C49.8024 12.2556 48.3641 12.8869 47.0058 12.5355C46.7699 12.4749 46.5393 12.3941 46.3139 12.2931C46.2622 12.2705 46.219 12.2818 46.1842 12.3271L40.5571 19.7064C40.5296 19.7427 40.5248 19.7819 40.5425 19.8239L40.8673 20.5752C40.8834 20.6131 40.9121 20.6321 40.9533 20.6321H50.115C50.1619 20.6321 50.193 20.6099 50.2083 20.5655C50.5032 19.6938 50.979 19.0496 51.6357 18.6328C52.9807 17.781 54.7789 17.8452 55.97 18.92C57.3416 20.1559 57.6046 22.2085 56.3262 23.602C55.2066 24.8222 53.6229 25.2378 52.0974 24.4768C51.2189 24.037 50.7609 23.2979 50.3852 22.383C50.3691 22.3434 50.34 22.3236 50.298 22.3236H41.1242C41.0741 22.3236 41.0438 22.3479 41.0333 22.3963C40.9727 22.6807 40.8693 22.9485 40.7231 23.1997C40.698 23.2425 40.7005 23.2833 40.7304 23.3221L46.2775 30.625C46.3123 30.6711 46.3551 30.6812 46.406 30.6553C47.3257 30.1949 48.2865 30.0652 49.2608 30.4639C50.8469 31.1134 51.8017 32.7807 51.397 34.4722C51.0686 35.8439 49.8993 36.9405 48.4732 37.1392C45.7371 37.5209 43.6166 34.5401 44.9689 32.0985C45.0004 32.0419 44.9964 31.9878 44.9568 31.9361L39.3066 24.6186C39.296 24.6048 39.2811 24.595 39.2643 24.5908C39.2476 24.5866 39.23 24.5883 39.2145 24.5956C38.6692 24.846 38.1179 24.9664 37.5605 24.9567C37.5056 24.9559 37.468 24.9809 37.4478 25.0318C36.3743 27.6709 34.73 29.9392 32.515 31.8368C31.9988 32.279 31.382 32.6716 30.8877 33.1636C29.9607 34.0881 29.2458 35.3446 28.6884 36.6896C28.106 38.0952 27.7215 39.4875 27.5349 40.8664C27.5337 40.8749 27.5343 40.8835 27.5367 40.8917C27.5391 40.8999 27.5433 40.9075 27.549 40.914C27.5546 40.9204 27.5616 40.9256 27.5694 40.9291C27.5772 40.9326 27.5857 40.9343 27.5942 40.9342C28.3294 40.9318 29.1642 40.931 30.0988 40.9318C30.8477 40.933 31.1143 41.3983 31.1082 42.0902C31.0832 44.8319 31.0828 47.5619 31.107 50.2801C31.113 50.9066 30.8053 51.3694 30.1485 51.3707C28.8795 51.3739 27.6516 51.3743 26.4649 51.3719C26.4205 51.3719 26.3983 51.3941 26.3983 51.4385V54.0158C26.3983 54.0667 26.4237 54.093 26.4746 54.0946C26.8317 54.1067 27.1835 54.1051 27.53 54.0897C27.8847 54.0736 28.1537 54.1245 28.337 54.2424C28.9126 54.6132 28.898 55.6237 28.2013 55.8915C28.0268 55.9594 27.82 55.9905 27.5809 55.9848C27.1899 55.9751 26.8204 55.9731 26.4722 55.9788C26.4197 55.9796 26.3934 56.0062 26.3934 56.0588ZM23.6744 24.7725C24.0355 24.7713 24.3638 25.0488 24.4681 25.3881C24.6728 26.063 24.2633 26.6458 23.5302 26.6458C22.9801 26.6466 22.4251 26.6466 21.8653 26.6458C21.8168 26.6458 21.7926 26.6696 21.7926 26.7173V40.9633C21.7926 41.0094 21.816 41.0324 21.8629 41.0324H25.4835C25.5009 41.0325 25.5177 41.0262 25.5309 41.0146C25.544 41.003 25.5526 40.9869 25.5549 40.9694C25.9621 37.8202 27.1689 34.4565 29.2846 32.1239C29.7196 31.6441 30.2261 31.2757 30.7507 30.8831C32.8797 29.2922 34.5131 26.9996 35.5758 24.4514C35.5943 24.4062 35.5838 24.3686 35.5443 24.3387C34.6355 23.6561 34.156 22.7518 34.106 21.6257C34.1052 21.6091 34.0995 21.5931 34.0895 21.5801C34.0795 21.567 34.0657 21.5576 34.0502 21.553L23.8222 18.4862C23.8054 18.4809 23.7873 18.4812 23.7707 18.4871C23.7541 18.493 23.7398 18.5042 23.7301 18.5189C23.3294 19.1062 22.8246 19.5367 22.2155 19.8106C19.9835 20.8163 17.405 19.2326 17.319 16.7825C17.2523 14.8717 18.7415 13.1947 20.656 13.1535C22.6553 13.1098 24.2148 14.5663 24.2378 16.6201C24.2386 16.663 24.2596 16.6904 24.3008 16.7025L34.5082 19.7645C34.5559 19.7791 34.5935 19.7649 34.6209 19.7221C35.1298 18.9345 35.806 18.4296 36.6493 18.2075C36.7059 18.1929 36.735 18.1562 36.7366 18.0972C36.8359 13.4443 34.5167 8.89189 30.9301 5.97046C27.959 3.55109 24.5157 2.3515 20.6003 2.3717C14.9453 2.40199 9.95545 5.48094 7.1249 10.2696C3.09235 17.0915 4.62152 25.7588 10.7939 30.768C11.3429 31.2139 11.9536 31.6053 12.4394 32.1082C12.975 32.6631 13.4363 33.2714 13.8232 33.933C14.9889 35.9275 15.764 38.2745 16.1485 40.9742C16.1508 40.9903 16.1589 41.005 16.1714 41.0157C16.1838 41.0264 16.1998 41.0323 16.2163 41.0324H19.8309C19.8858 41.0324 19.9132 41.0045 19.9132 40.9488V26.7185C19.9132 26.6708 19.8898 26.647 19.843 26.647C19.292 26.6462 18.7246 26.6458 18.1405 26.6458C16.8658 26.6458 16.8367 24.7616 18.1902 24.7677C20.137 24.7765 21.9651 24.7782 23.6744 24.7725ZM49.5043 9.15725C49.5043 8.73659 49.3372 8.33315 49.0397 8.03569C48.7423 7.73824 48.3389 7.57113 47.9182 7.57113C47.4975 7.57113 47.0941 7.73824 46.7966 8.03569C46.4992 8.33315 46.3321 8.73659 46.3321 9.15725C46.3321 9.57792 46.4992 9.98135 46.7966 10.2788C47.0941 10.5763 47.4975 10.7434 47.9182 10.7434C48.3389 10.7434 48.7423 10.5763 49.0397 10.2788C49.3372 9.98135 49.5043 9.57792 49.5043 9.15725ZM21.6394 18.1072C22.0125 17.9244 22.2957 17.5965 22.4265 17.1957C22.5573 16.7948 22.525 16.3538 22.3368 15.9697C22.2437 15.7795 22.115 15.609 21.9582 15.4679C21.8014 15.3268 21.6196 15.2179 21.423 15.1474C21.2265 15.0769 21.0191 15.0462 20.8128 15.0571C20.6064 15.0679 20.4051 15.1201 20.2203 15.2106C19.8472 15.3934 19.5641 15.7213 19.4333 16.1222C19.3025 16.5231 19.3347 16.9641 19.5229 17.3482C19.6161 17.5384 19.7447 17.7089 19.9015 17.85C20.0583 17.991 20.2402 18.0999 20.4367 18.1704C20.6332 18.2409 20.8406 18.2716 21.047 18.2608C21.2533 18.2499 21.4546 18.1978 21.6394 18.1072ZM39.2593 21.57C39.2593 21.1503 39.0926 20.7478 38.7958 20.451C38.4991 20.1542 38.0966 19.9875 37.6769 19.9875C37.2572 19.9875 36.8546 20.1542 36.5579 20.451C36.2611 20.7478 36.0944 21.1503 36.0944 21.57C36.0944 21.9897 36.2611 22.3922 36.5579 22.689C36.8546 22.9857 37.2572 23.1525 37.6769 23.1525C38.0966 23.1525 38.4991 22.9857 38.7958 22.689C39.0926 22.3922 39.2593 21.9897 39.2593 21.57ZM55.2701 21.5126C55.264 21.3065 55.2164 21.1036 55.1301 20.9156C55.0438 20.7275 54.9205 20.558 54.7671 20.4167C54.6138 20.2753 54.4334 20.165 54.2364 20.0918C54.0394 20.0187 53.8295 19.9843 53.6187 19.9906C53.408 19.9968 53.2005 20.0436 53.0081 20.1283C52.8158 20.213 52.6423 20.3338 52.4976 20.484C52.3529 20.6342 52.2398 20.8108 52.1648 21.0036C52.0898 21.1964 52.0544 21.4018 52.0605 21.6079C52.0666 21.814 52.1142 22.0169 52.2005 22.205C52.2868 22.393 52.4101 22.5626 52.5635 22.7039C52.7168 22.8452 52.8972 22.9556 53.0942 23.0287C53.2913 23.1018 53.5012 23.1362 53.7119 23.13C53.9226 23.1237 54.1301 23.0769 54.3225 22.9922C54.5149 22.9076 54.6883 22.7867 54.833 22.6365C54.9777 22.4863 55.0908 22.3098 55.1658 22.117C55.2408 21.9241 55.2762 21.7188 55.2701 21.5126ZM49.5055 33.8845C49.5055 33.4648 49.3388 33.0623 49.042 32.7655C48.7453 32.4688 48.3427 32.302 47.923 32.302C47.5033 32.302 47.1008 32.4688 46.8041 32.7655C46.5073 33.0623 46.3405 33.4648 46.3405 33.8845C46.3405 34.3042 46.5073 34.7067 46.8041 35.0035C47.1008 35.3003 47.5033 35.467 47.923 35.467C48.3427 35.467 48.7453 35.3003 49.042 35.0035C49.3388 34.7067 49.5055 34.3042 49.5055 33.8845ZM29.2167 43.039C29.2167 43.03 29.2132 43.0213 29.2068 43.015C29.2004 43.0086 29.1918 43.005 29.1828 43.005H12.5218C12.5128 43.005 12.5042 43.0086 12.4979 43.015C12.4915 43.0213 12.4879 43.03 12.4879 43.039V45.317C12.4879 45.326 12.4915 45.3346 12.4979 45.341C12.5042 45.3473 12.5128 45.3509 12.5218 45.3509H29.1828C29.1918 45.3509 29.2004 45.3473 29.2068 45.341C29.2132 45.3346 29.2167 45.326 29.2167 45.317V43.039ZM29.2167 47.2763C29.2167 47.2647 29.2121 47.2536 29.2039 47.2455C29.1958 47.2373 29.1847 47.2327 29.1731 47.2327H12.5315C12.52 47.2327 12.5089 47.2373 12.5007 47.2455C12.4925 47.2536 12.4879 47.2647 12.4879 47.2763V49.5446C12.4879 49.5504 12.489 49.556 12.4912 49.5613C12.4934 49.5666 12.4966 49.5714 12.5007 49.5755C12.5047 49.5795 12.5095 49.5827 12.5148 49.5849C12.5201 49.5871 12.5258 49.5882 12.5315 49.5882H29.1731C29.1788 49.5882 29.1845 49.5871 29.1898 49.5849C29.1951 49.5827 29.1999 49.5795 29.2039 49.5755C29.208 49.5714 29.2112 49.5666 29.2134 49.5613C29.2156 49.556 29.2167 49.5504 29.2167 49.5446V47.2763ZM24.5444 57.0354C24.5557 57.0322 24.5654 57.0265 24.5735 57.0184C24.5985 56.9942 24.611 56.9639 24.611 56.9275C24.6118 55.1455 24.6118 53.3671 24.611 51.5924C24.611 51.5831 24.6073 51.5741 24.6007 51.5676C24.5941 51.561 24.5852 51.5573 24.5759 51.5573H17.3469C17.296 51.5573 17.2709 51.5827 17.2717 51.6336C17.2887 53.2872 17.2887 54.9585 17.2717 56.6476C17.2632 57.5479 17.5226 58.2616 18.3332 58.6348C18.6159 58.7657 19.0715 58.8227 19.7 58.8057C20.4803 58.7839 21.2732 58.7835 22.0786 58.8045C22.6998 58.8206 23.1412 58.7714 23.403 58.6567C24.0823 58.357 24.4559 57.8246 24.5238 57.0596C24.5254 57.0467 24.5323 57.0386 24.5444 57.0354Z" fill="white" stroke="white" stroke-width="0.2" mask="url(#path-1-inside-1_180_463)"/>
</g>
<defs>
<clipPath id="clip0_180_463">
<rect width="60" height="60" fill="white" transform="translate(0 0.5)"/>
</clipPath>
</defs>
</svg>
